<svg width="659" height="494" viewBox="0 0 659 494" fill="none" xmlns="http://www.w3.org/2000/svg">
<path d="M277.956 413.398H383.996L416.14 380.555L420.749 307.12H322.776V375.833L277.956 413.398Z" fill="#8FE4FF"/>
<path d="M123.394 344.194H532.239C544.598 344.194 556.598 334.18 559.041 321.828L602.81 100.583C605.253 88.2301 597.216 78.2167 584.857 78.2167H176.012C163.653 78.2167 151.653 88.2301 149.209 100.583L105.441 321.828C102.998 334.18 111.035 344.194 123.394 344.194Z" fill="#4382FF"/>
<path d="M175.092 405.989H510.555V415.123H175.092V405.989Z" fill="#4382FF"/>
<path d="M481.409 161.129H650.762V171.577H481.409V161.129Z" fill="#B3CAF8"/>
<path d="M475.551 184.089H644.904V194.536H475.551V184.089Z" fill="#B3CAF8"/>
<path d="M413.985 207.04H640.995V217.487H413.985V207.04Z" fill="#B3CAF8"/>
<path d="M640.994 103.612H104.939" stroke="#78D2EE" stroke-width="2" stroke-miterlimit="10"/>
<path d="M13.8571 214.962L8.7276 239.555C6.13608 251.981 14.077 262.055 26.4638 262.055H323.721C336.108 262.055 348.252 251.981 350.843 239.555L355.973 214.962C358.564 202.536 350.623 192.462 338.237 192.462H40.9791C28.5924 192.462 16.4487 202.536 13.8571 214.962Z" fill="#8FE4FF"/>
<path d="M311.087 237.5C318.658 237.5 326.08 231.343 327.664 223.747C329.248 216.152 324.394 209.995 316.823 209.995C309.252 209.995 301.83 216.152 300.246 223.747C298.662 231.343 303.515 237.5 311.087 237.5Z" fill="#4382FF"/>
<path d="M278.865 213.512H45.0089" stroke="#005B9D" stroke-width="5" stroke-miterlimit="10" stroke-linecap="round"/>
<path d="M274.592 234H40.736" stroke="#005B9D" stroke-width="5" stroke-miterlimit="10" stroke-linecap="round"/>
<path d="M456.068 285.579H222.212" stroke="#FFE458" stroke-width="5" stroke-miterlimit="10" stroke-linecap="round"/>
<path d="M451.795 306.066H217.939" stroke="#FFE458" stroke-width="5" stroke-miterlimit="10" stroke-linecap="round"/>
<path d="M158.052 161.129H277.946" stroke="#FFE458" stroke-width="5" stroke-miterlimit="10"/>
<path d="M167.488 146.754H208.377" stroke="#FFE458" stroke-width="5" stroke-miterlimit="10"/>
<path d="M177.382 132.361H351.509" stroke="#FFE458" stroke-width="5" stroke-miterlimit="10"/>
<path d="M570.339 97.3937C568.111 97.3937 566.304 95.5882 566.304 93.3611C566.304 91.1339 568.111 89.3284 570.339 89.3284C572.567 89.3284 574.374 91.1339 574.374 93.3611C574.374 95.5882 572.567 97.3937 570.339 97.3937Z" fill="#B3CAF8"/>
<path d="M553.372 97.3937C551.144 97.3937 549.338 95.5882 549.338 93.3611C549.338 91.1339 551.144 89.3284 553.372 89.3284C555.601 89.3284 557.407 91.1339 557.407 93.3611C557.407 95.5882 555.601 97.3937 553.372 97.3937Z" fill="#8FE4FF"/>
<path d="M536.407 97.3937C534.179 97.3937 532.372 95.5882 532.372 93.3611C532.372 91.1339 534.179 89.3284 536.407 89.3284C538.635 89.3284 540.442 91.1339 540.442 93.3611C540.442 95.5882 538.635 97.3937 536.407 97.3937Z" fill="#8FE4FF"/>
<path d="M650.762 171.579H481.409" stroke="#FFE458" stroke-width="5" stroke-miterlimit="10" stroke-linecap="round"/>
<path d="M644.906 194.543H475.553" stroke="#FFE458" stroke-width="5" stroke-miterlimit="10" stroke-linecap="round"/>
<path d="M640.995 217.5H413.984" stroke="#FFE458" stroke-width="5" stroke-miterlimit="10" stroke-linecap="round"/>
</svg>
