<svg width="656" height="490" viewBox="0 0 656 490" fill="none" xmlns="http://www.w3.org/2000/svg">
<path fill-rule="evenodd" clip-rule="evenodd" d="M613.183 112.346C617.955 116.952 621.321 122.773 621.608 131.349C621.896 139.937 618.775 146.16 613.765 151.065C608.794 155.934 601.97 159.498 594.867 162.853C593.46 163.517 592.043 164.174 590.624 164.83C584.835 167.509 579.032 170.195 573.893 173.476C567.512 177.548 562.255 182.481 559.428 189.323C554.999 200.04 553.182 208.132 553.361 215.621C553.541 223.111 555.72 230.078 559.421 238.556L557.888 239.22C554.153 230.663 551.878 223.465 551.69 215.66C551.503 207.856 553.404 199.525 557.882 188.689C560.89 181.412 566.454 176.246 572.991 172.074C578.235 168.726 584.169 165.98 589.967 163.297C591.373 162.646 592.772 162 594.151 161.349C601.258 157.992 607.845 154.528 612.593 149.879C617.302 145.267 620.208 139.483 619.937 131.405C619.667 123.317 616.525 117.89 612.019 113.541C608.436 110.083 604.023 107.33 599.439 104.47C598.188 103.69 596.924 102.901 595.661 102.088C589.82 98.3291 584.069 94.0841 580.141 87.7786C576.198 81.4484 574.148 73.1329 575.515 61.325L577.177 61.5158C575.843 73.0269 577.855 80.9492 581.562 86.9007C585.283 92.8762 590.767 96.9555 596.569 100.69C597.782 101.47 599.012 102.238 600.242 103.005C604.848 105.877 609.459 108.753 613.183 112.346Z" fill="#8FE4FF"/>
<path d="M100.883 422.787C80.6466 382.718 92.391 323.997 134.796 308.892C162.152 299.147 185.181 324.044 213.251 331.502C251.769 341.736 291.539 337.412 305.037 355.094C325.796 382.289 293.939 416.685 263.491 441.503C213.58 482.185 127.743 475.971 100.883 422.787Z" fill="#B3CAF8"/>
<path d="M145.376 390.417C152.989 390.417 159.16 384.27 159.16 376.688C159.16 369.106 152.989 362.96 145.376 362.96C137.763 362.96 131.592 369.106 131.592 376.688C131.592 384.27 137.763 390.417 145.376 390.417Z" fill="#F24E1E"/>
<path d="M186.661 390.417C194.274 390.417 200.445 384.27 200.445 376.688C200.445 369.106 194.274 362.96 186.661 362.96C179.048 362.96 172.876 369.106 172.876 376.688C172.876 384.27 179.048 390.417 186.661 390.417Z" fill="#FF7262"/>
<path d="M227.945 390.417C235.558 390.417 241.73 384.27 241.73 376.688C241.73 369.106 235.558 362.96 227.945 362.96C220.332 362.96 214.161 369.106 214.161 376.688C214.161 384.27 220.332 390.417 227.945 390.417Z" fill="#A259FF"/>
<path d="M145.376 431.601C152.989 431.601 159.16 425.455 159.16 417.873C159.16 410.291 152.989 404.145 145.376 404.145C137.763 404.145 131.592 410.291 131.592 417.873C131.592 425.455 137.763 431.601 145.376 431.601Z" fill="#1ABCFE"/>
<path d="M186.661 431.601C194.274 431.601 200.445 425.455 200.445 417.873C200.445 410.291 194.274 404.145 186.661 404.145C179.048 404.145 172.876 410.291 172.876 417.873C172.876 425.455 179.048 431.601 186.661 431.601Z" fill="#0ACF83"/>
<path d="M227.945 431.601C235.558 431.601 241.73 425.455 241.73 417.873C241.73 410.291 235.558 404.145 227.945 404.145C220.332 404.145 214.161 410.291 214.161 417.873C214.161 425.455 220.332 431.601 227.945 431.601Z" fill="#EAF0FE"/>
<path fill-rule="evenodd" clip-rule="evenodd" d="M239.465 360.379C240.724 361.623 240.733 363.649 239.484 364.903L231.511 372.911C230.261 374.166 228.227 374.175 226.968 372.93C225.708 371.686 225.699 369.661 226.948 368.406L234.922 360.398C236.171 359.143 238.204 359.135 239.465 360.379Z" fill="#4382FF"/>
<path opacity="0.2" d="M292.881 319.649L296.664 314.333C303.219 316.217 311.192 315.611 314.436 312.314C319.165 307.603 317.003 297.846 309.638 290.51C302.273 283.176 292.476 281.089 287.745 285.733C284.435 289.031 283.827 296.904 285.718 303.431L280.381 307.2L292.881 319.649Z" fill="#8FE4FF"/>
<path fill-rule="evenodd" clip-rule="evenodd" d="M298.386 280.504C303.031 281.51 307.854 284.211 311.909 288.248C315.959 292.282 318.689 297.083 319.71 301.71C320.72 306.292 320.112 311.175 316.718 314.565C314.326 316.989 310.631 318.092 307.119 318.449C304.214 318.746 301.047 318.575 298.022 317.958L295.501 321.5C294.954 322.268 294.094 322.758 293.151 322.837C292.209 322.917 291.278 322.578 290.609 321.911L278.109 309.462C277.44 308.796 277.099 307.869 277.179 306.93C277.259 305.991 277.75 305.134 278.523 304.59L282.078 302.079C281.458 299.072 281.288 295.931 281.585 293.045C281.946 289.536 283.059 285.876 285.474 283.471L285.49 283.454C288.891 280.116 293.785 279.507 298.386 280.504ZM290.009 288.003C289.116 288.899 288.273 290.821 287.976 293.697C287.69 296.477 287.97 299.665 288.804 302.544C289.184 303.851 288.691 305.254 287.576 306.042L285.343 307.618L292.46 314.707L294.044 312.483C294.833 311.373 296.242 310.882 297.555 311.259C300.444 312.09 303.662 312.37 306.464 312.084C309.382 311.787 311.289 310.941 312.14 310.075L312.163 310.052C313.489 308.731 314.162 306.386 313.434 303.083C312.715 299.82 310.682 296.075 307.366 292.773C304.056 289.476 300.298 287.466 297.02 286.756C293.707 286.038 291.339 286.703 290.009 288.003Z" fill="#4382FF"/>
<path opacity="0.83" d="M272.002 340.107L251.056 360.968L247.407 357.334L240.177 364.535L235.448 359.824L242.677 352.624L238.961 348.923L259.907 328.061L272.002 340.107Z" fill="#8FE4FF"/>
<path fill-rule="evenodd" clip-rule="evenodd" d="M257.635 325.799C258.89 324.551 260.924 324.551 262.179 325.799L274.273 337.845C275.527 339.095 275.527 341.121 274.273 342.369L253.327 363.231C252.072 364.481 250.038 364.481 248.784 363.231L247.406 361.859L242.448 366.798C241.193 368.047 239.16 368.047 237.905 366.798L233.175 362.087C232.572 361.487 232.235 360.673 232.235 359.825C232.235 358.976 232.572 358.163 233.175 357.563L238.134 352.624L236.689 351.185C235.434 349.936 235.434 347.911 236.689 346.661L257.635 325.799ZM243.503 348.923L244.948 350.362C245.551 350.962 245.889 351.776 245.889 352.624C245.889 353.473 245.551 354.286 244.948 354.887L239.989 359.825L240.176 360.011L245.135 355.073C246.389 353.823 248.423 353.823 249.678 355.073L251.055 356.445L267.459 340.107L259.906 332.587L243.503 348.923Z" fill="#4382FF"/>
<path fill-rule="evenodd" clip-rule="evenodd" d="M294.948 317.252C296.203 318.501 296.203 320.527 294.948 321.776L274.88 341.763C273.626 343.012 271.592 343.012 270.338 341.763C269.083 340.513 269.083 338.488 270.338 337.238L290.406 317.252C291.66 316.003 293.694 316.003 294.948 317.252Z" fill="#4382FF"/>
<path fill-rule="evenodd" clip-rule="evenodd" d="M282.921 305.208C284.176 306.457 284.176 308.483 282.921 309.732L262.853 329.719C261.599 330.968 259.564 330.968 258.311 329.719C257.056 328.469 257.056 326.444 258.311 325.194L278.378 305.208C279.633 303.958 281.667 303.958 282.921 305.208Z" fill="#4382FF"/>
<path fill-rule="evenodd" clip-rule="evenodd" d="M270.542 297.872C271.796 296.622 273.83 296.622 275.085 297.872L302.923 325.598C304.177 326.846 304.177 328.872 302.923 330.122C301.669 331.371 299.635 331.371 298.38 330.122L270.542 302.396C269.287 301.147 269.287 299.121 270.542 297.872Z" fill="#4382FF"/>
<path opacity="0.1" fill-rule="evenodd" clip-rule="evenodd" d="M311.859 336.16C316.226 337.615 320.571 340.122 324.019 343.292C327.463 346.459 329.546 349.844 329.998 352.813C330.446 355.752 329.298 358.575 325.633 359.992C323.045 361.01 319.353 360.996 315.921 360.567C313.084 360.214 310.048 359.531 307.2 358.606L305.905 359.366L311.05 364.095C312.116 365.076 311.884 366.294 310.529 366.815C309.175 367.336 307.212 366.963 306.145 365.983L301.124 361.366L282.128 368.676C282.017 368.718 281.902 368.755 281.783 368.786C281.687 368.838 281.583 368.886 281.471 368.928L258.857 377.631C257.503 378.152 255.54 377.779 254.473 376.799L253.302 375.721L247.948 377.782C246.594 378.303 244.631 377.93 243.564 376.949L243.433 376.829L236.69 379.453C235.341 379.979 233.377 379.611 232.304 378.632C231.232 377.654 231.456 376.434 232.806 375.909L239.569 373.277L239.542 373.251C239.029 372.781 238.796 372.229 238.894 371.719C238.991 371.209 239.411 370.782 240.062 370.531L245.415 368.472L244.186 367.342C243.119 366.362 243.352 365.144 244.707 364.623L267.322 355.92C267.484 355.858 267.655 355.808 267.832 355.771C267.9 355.738 267.969 355.708 268.043 355.68L287.002 348.385L282.469 344.218C281.402 343.237 281.635 342.019 282.988 341.498C284.343 340.977 286.306 341.349 287.373 342.33L291.944 346.531L293.639 346.141C293.387 344.219 293.584 342.3 294.203 340.619C294.955 338.577 296.45 336.58 299.056 335.577L299.074 335.571C302.74 334.187 307.533 334.717 311.859 336.16ZM290.865 351.937L273.666 358.555L280.06 364.433L297.26 357.814L290.865 351.937Z" fill="black"/>
<path d="M231.279 284.669H193.497V291.241H231.279V284.669Z" fill="#F2F4FF"/>
<path d="M231.279 295.387H193.497V301.959H231.279V295.387Z" fill="#F2F4FF"/>
<path d="M187.999 250.171H132.073C124.375 250.171 118.092 243.991 118.092 236.246V89.9591C118.092 82.2931 124.297 76.0345 132.073 76.0345H187.999V250.171Z" fill="#8FE4FF"/>
<path d="M437.82 250.171H183.994C174.804 250.171 167.342 242.739 167.342 233.586V92.619C167.342 83.4666 174.804 76.0345 183.994 76.0345H437.82C447.01 76.0345 454.472 83.4666 454.472 92.619V233.586C454.472 242.739 447.01 250.171 437.82 250.171Z" fill="#4382FF"/>
<path d="M299.725 174.069H277.49C273.818 174.069 270.866 171.129 270.866 167.471V166.557C270.866 162.899 273.818 159.96 277.49 159.96H299.725C303.397 159.96 306.349 162.899 306.349 166.557V167.471C306.349 171.129 303.397 174.069 299.725 174.069Z" fill="#F2F4FF"/>
<path d="M342.684 174.069H320.45C316.777 174.069 313.826 171.129 313.826 167.471V166.557C313.826 162.899 316.777 159.96 320.45 159.96H342.684C346.356 159.96 349.308 162.899 349.308 166.557V167.471C349.308 171.129 346.356 174.069 342.684 174.069Z" fill="#F2F4FF"/>
<path d="M385.577 174.069H363.343C359.67 174.069 356.719 171.129 356.719 167.471V166.557C356.719 162.899 359.67 159.96 363.343 159.96H385.577C389.25 159.96 392.201 162.899 392.201 166.557V167.471C392.201 171.129 389.25 174.069 385.577 174.069Z" fill="#F2F4FF"/>
<path d="M428.536 174.069H406.303C402.63 174.069 399.679 171.129 399.679 167.471V166.557C399.679 162.899 402.63 159.96 406.303 159.96H428.536C432.209 159.96 435.161 162.899 435.161 166.557V167.471C435.161 171.129 432.143 174.069 428.536 174.069Z" fill="#F2F4FF"/>
<path d="M247.617 144.484H185.25C182.029 144.484 179.359 141.902 179.359 138.616V98.7203C179.359 95.5124 181.951 92.8525 185.25 92.8525H247.617C250.837 92.8525 253.508 95.434 253.508 98.7203V138.616C253.429 141.824 250.837 144.484 247.617 144.484Z" fill="#8FE4FF"/>
<path fill-rule="evenodd" clip-rule="evenodd" d="M185.25 144.317H247.617C250.74 144.317 253.264 141.736 253.341 138.614V98.7203C253.341 95.5279 250.746 93.0191 247.617 93.0191H185.25C182.045 93.0191 179.526 95.6031 179.526 98.7203V138.616C179.526 141.808 182.12 144.317 185.25 144.317ZM253.508 138.616V98.7203C253.508 95.434 250.837 92.8525 247.617 92.8525H185.25C181.951 92.8525 179.359 95.5124 179.359 98.7203V138.616C179.359 141.902 182.029 144.484 185.25 144.484H247.617C250.837 144.484 253.429 141.824 253.508 138.616Z" fill="#177E95"/>
<path fill-rule="evenodd" clip-rule="evenodd" d="M220.204 108.735H186.35V107.321H220.204V108.735Z" fill="#4382FF"/>
<path fill-rule="evenodd" clip-rule="evenodd" d="M225.152 112.177H186.35V110.764H225.152V112.177Z" fill="#4382FF"/>
<path fill-rule="evenodd" clip-rule="evenodd" d="M225.152 115.62H186.35V114.206H225.152V115.62Z" fill="#4382FF"/>
<path fill-rule="evenodd" clip-rule="evenodd" d="M246.518 108.735H232.065V107.321H246.518V108.735Z" fill="#4382FF"/>
<path fill-rule="evenodd" clip-rule="evenodd" d="M246.518 112.177H232.065V110.764H246.518V112.177Z" fill="#4382FF"/>
<path fill-rule="evenodd" clip-rule="evenodd" d="M246.518 115.62H232.065V114.206H246.518V115.62Z" fill="#4382FF"/>
<path d="M246.517 122.97H186.35V125.088H246.517V122.97Z" fill="#4382FF"/>
<path d="M211.249 138.467H189.884C187.921 138.467 186.35 136.902 186.35 134.946C186.35 132.99 187.921 131.426 189.884 131.426H211.249C213.213 131.426 214.784 132.99 214.784 134.946C214.784 136.824 213.213 138.467 211.249 138.467Z" fill="#4382FF"/>
<path d="M340.225 144.484H277.858C274.638 144.484 271.967 141.902 271.967 138.616V98.7203C271.967 95.5124 274.559 92.8525 277.858 92.8525H340.225C343.446 92.8525 346.116 95.434 346.116 98.7203V138.616C346.116 141.824 343.446 144.484 340.225 144.484Z" fill="#8FE4FF"/>
<path fill-rule="evenodd" clip-rule="evenodd" d="M277.858 144.317H340.225C343.353 144.317 345.949 141.732 345.949 138.616V98.7203C345.949 95.5279 343.355 93.0191 340.225 93.0191H277.858C274.653 93.0191 272.134 95.6031 272.134 98.7203V138.616C272.134 141.808 274.729 144.317 277.858 144.317ZM277.858 144.484H340.225C343.446 144.484 346.116 141.824 346.116 138.616V98.7203C346.116 95.434 343.446 92.8525 340.225 92.8525H277.858C274.559 92.8525 271.967 95.5124 271.967 98.7203V138.616C271.967 141.902 274.638 144.484 277.858 144.484Z" fill="#177E95"/>
<path fill-rule="evenodd" clip-rule="evenodd" d="M312.891 108.735H278.958V107.321H312.891V108.735Z" fill="#4382FF"/>
<path fill-rule="evenodd" clip-rule="evenodd" d="M317.761 112.177H278.958V110.764H317.761V112.177Z" fill="#4382FF"/>
<path d="M303.858 138.467H282.493C280.529 138.467 278.958 136.902 278.958 134.946C278.958 132.99 280.529 131.426 282.493 131.426H303.858C305.822 131.426 307.392 132.99 307.392 134.946C307.392 136.824 305.822 138.467 303.858 138.467Z" fill="#4382FF"/>
<path d="M432.833 144.484H370.466C367.245 144.484 364.575 141.902 364.575 138.616V98.7203C364.575 95.5124 367.167 92.8525 370.466 92.8525H432.833C436.053 92.8525 438.724 95.434 438.724 98.7203V138.616C438.724 141.824 436.053 144.484 432.833 144.484Z" fill="#8FE4FF"/>
<path fill-rule="evenodd" clip-rule="evenodd" d="M370.466 144.317H432.833C435.961 144.317 438.556 141.732 438.556 138.616V98.7203C438.556 95.5279 435.962 93.0191 432.833 93.0191H370.466C367.261 93.0191 364.742 95.6031 364.742 98.7203V138.616C364.742 141.808 367.336 144.317 370.466 144.317ZM370.466 144.484H432.833C436.053 144.484 438.724 141.824 438.724 138.616V98.7203C438.724 95.434 436.053 92.8525 432.833 92.8525H370.466C367.167 92.8525 364.575 95.5124 364.575 98.7203V138.616C364.575 141.902 367.245 144.484 370.466 144.484Z" fill="#177E95"/>
<path d="M385.335 99.7371H371.566V102.71H385.335V99.7371Z" fill="#4382FF"/>
<path d="M292.727 99.7371H278.958V102.71H292.727V99.7371Z" fill="#4382FF"/>
<path d="M200.118 99.7371H186.35V102.71H200.118V99.7371Z" fill="#4382FF"/>
<path fill-rule="evenodd" clip-rule="evenodd" d="M405.498 108.735H371.566V107.321H405.498V108.735Z" fill="#4382FF"/>
<path fill-rule="evenodd" clip-rule="evenodd" d="M410.368 112.177H371.566V110.764H410.368V112.177Z" fill="#4382FF"/>
<path opacity="0.5" fill-rule="evenodd" clip-rule="evenodd" d="M431.811 127.285C431.811 127.745 431.437 128.118 430.976 128.118H372.402C371.94 128.118 371.566 127.745 371.566 127.285V116.318C371.566 115.858 371.94 115.485 372.402 115.485H430.976C431.437 115.485 431.811 115.858 431.811 116.318V127.285Z" fill="#4382FF"/>
<path d="M396.465 138.467H375.1C373.136 138.467 371.566 136.902 371.566 134.946C371.566 132.99 373.136 131.426 375.1 131.426H396.465C398.429 131.426 400 132.99 400 134.946C400 136.824 398.429 138.467 396.465 138.467Z" fill="#4382FF"/>
<path fill-rule="evenodd" clip-rule="evenodd" d="M297.482 118.205H283.03V116.792H297.482V118.205Z" fill="#4382FF"/>
<path fill-rule="evenodd" clip-rule="evenodd" d="M316.268 118.205H301.816V116.792H316.268V118.205Z" fill="#4382FF"/>
<path fill-rule="evenodd" clip-rule="evenodd" d="M335.054 118.205H320.601V116.792H335.054V118.205Z" fill="#4382FF"/>
<path fill-rule="evenodd" clip-rule="evenodd" d="M297.482 121.647H283.03V120.234H297.482V121.647Z" fill="#4382FF"/>
<path fill-rule="evenodd" clip-rule="evenodd" d="M316.268 121.647H301.816V120.234H316.268V121.647Z" fill="#4382FF"/>
<path fill-rule="evenodd" clip-rule="evenodd" d="M335.054 121.647H320.601V120.234H335.054V121.647Z" fill="#4382FF"/>
<path fill-rule="evenodd" clip-rule="evenodd" d="M297.482 125.089H283.03V123.675H297.482V125.089Z" fill="#4382FF"/>
<path fill-rule="evenodd" clip-rule="evenodd" d="M316.268 125.089H301.816V123.675H316.268V125.089Z" fill="#4382FF"/>
<path fill-rule="evenodd" clip-rule="evenodd" d="M335.054 125.089H320.601V123.675H335.054V125.089Z" fill="#4382FF"/>
<path d="M243.532 277.395H195.382C192.005 277.395 189.256 274.658 189.256 271.294V161.774C189.256 158.41 192.005 155.672 195.382 155.672H243.532C246.909 155.672 249.659 158.41 249.659 161.774V271.294C249.738 274.658 246.988 277.395 243.532 277.395Z" fill="white"/>
<path d="M234.499 222.48H193.496V229.051H234.499V222.48Z" fill="#F2F4FF"/>
<path d="M226.015 261.984H193.496V268.555H226.015V261.984Z" fill="#8FE4FF"/>
<path d="M239.918 245.4H193.496V257.839H239.918V245.4Z" fill="#F2F4FF"/>
<path d="M239.289 212.936H199.622C197.03 212.936 194.989 210.824 194.989 208.32V166.781C194.989 164.2 197.109 162.166 199.622 162.166H239.289C241.881 162.166 243.924 164.278 243.924 166.781V208.32C244.002 210.824 241.881 212.936 239.289 212.936Z" fill="#8FE4FF"/>
<path opacity="0.35" d="M160.272 100.129H126.889V104.51H160.272V100.129Z" fill="black" fill-opacity="0.25"/>
<path opacity="0.35" d="M160.272 110.925H126.889V115.305H160.272V110.925Z" fill="black" fill-opacity="0.25"/>
<path opacity="0.35" d="M160.272 121.72H126.889V126.101H160.272V121.72Z" fill="black" fill-opacity="0.25"/>
<path opacity="0.35" d="M160.272 132.516H126.889V136.896H160.272V132.516Z" fill="black" fill-opacity="0.25"/>
<path opacity="0.35" d="M160.272 196.037H126.889V200.417H160.272V196.037Z" fill="black" fill-opacity="0.25"/>
<path opacity="0.35" d="M160.272 206.832H126.889V211.213H160.272V206.832Z" fill="black" fill-opacity="0.25"/>
<path opacity="0.35" d="M160.272 217.627H126.889V222.008H160.272V217.627Z" fill="black" fill-opacity="0.25"/>
<path opacity="0.35" d="M160.272 228.422H126.889V232.803H160.272V228.422Z" fill="black" fill-opacity="0.25"/>
<path d="M238.349 200.34C237.564 199.557 236.228 199.557 235.443 200.34L234.422 201.356L233.401 200.34C232.615 199.557 231.279 199.557 230.494 200.34C229.709 201.122 229.709 202.452 230.494 203.234L231.516 204.252L234.422 207.146L237.328 204.252L238.349 203.234C239.134 202.374 239.134 201.122 238.349 200.34Z" fill="#FCFCFC"/>
<path d="M294.868 225.968H275.411C273.503 225.968 271.967 224.437 271.967 222.537V191.755C271.967 189.855 273.503 188.325 275.411 188.325H294.868C296.776 188.325 298.313 189.855 298.313 191.755V222.537C298.313 224.391 296.776 225.968 294.868 225.968Z" fill="#8FE4FF"/>
<path d="M313.361 190.012H304.316V191.348H313.361V190.012Z" fill="#8FE4FF"/>
<path d="M313.361 192.987H304.316V194.323H313.361V192.987Z" fill="#8FE4FF"/>
<path d="M313.361 195.96H304.316V197.296H313.361V195.96Z" fill="#8FE4FF"/>
<path d="M313.361 203.504H304.316V204.841H313.361V203.504Z" fill="#8FE4FF"/>
<path d="M313.361 206.478H304.316V207.814H313.361V206.478Z" fill="#8FE4FF"/>
<path d="M313.361 209.453H304.316V210.789H313.361V209.453Z" fill="#8FE4FF"/>
<path d="M313.361 216.996H304.316V218.332H313.361V216.996Z" fill="#8FE4FF"/>
<path d="M313.361 219.971H304.316V221.307H313.361V219.971Z" fill="#8FE4FF"/>
<path d="M313.361 222.943H304.316V224.28H313.361V222.943Z" fill="#8FE4FF"/>
<path d="M295.285 219.478C294.82 219.014 294.029 219.014 293.563 219.478L292.958 220.08L292.353 219.478C291.888 219.014 291.097 219.014 290.631 219.478C290.165 219.941 290.165 220.729 290.631 221.193L291.236 221.795L292.958 223.511L294.68 221.795L295.285 221.193C295.751 220.729 295.751 219.987 295.285 219.478Z" fill="#FCFCFC"/>
<path d="M342.397 40.8556H66.8079V61.8341H342.397V40.8556Z" fill="#8FE4FF"/>
<path d="M88.2075 45.7621H75.4185V47.5859H88.2075V45.7621Z" fill="#4382FF"/>
<path d="M88.2073 50.3909H75.4187V52.2146H88.2073V50.3909Z" fill="#4382FF"/>
<path d="M88.2073 55.0212H75.4187V56.8451H88.2073V55.0212Z" fill="#4382FF"/>
<path opacity="0.35" d="M122.485 44.9358H109.696V57.6728H122.485V44.9358Z" fill="black" fill-opacity="0.25"/>
<path opacity="0.35" d="M159.513 44.9358H146.724V57.6728H159.513V44.9358Z" fill="black" fill-opacity="0.25"/>
<path opacity="0.35" d="M196.543 44.9358H183.755V57.6728H196.543V44.9358Z" fill="black" fill-opacity="0.25"/>
<path opacity="0.35" d="M233.574 44.9358H220.785V57.6728H233.574V44.9358Z" fill="black" fill-opacity="0.25"/>
<path d="M359.198 40.8556H349.919V61.8341H359.198V40.8556Z" fill="#8FE4FF"/>
<path d="M376 40.8556H366.722V61.8341H376V40.8556Z" fill="#8FE4FF"/>
<path fill-rule="evenodd" clip-rule="evenodd" d="M383.188 42.8541C383.188 42.1644 383.748 41.6053 384.441 41.6053H442.117C442.809 41.6053 443.371 42.1644 443.371 42.8541C443.371 43.5437 442.809 44.1028 442.117 44.1028H384.441C383.748 44.1028 383.188 43.5437 383.188 42.8541Z" fill="#8FE4FF"/>
<path fill-rule="evenodd" clip-rule="evenodd" d="M403.332 29.5337C403.332 28.844 403.893 28.285 404.586 28.285H430.999C431.691 28.285 432.253 28.844 432.253 29.5337C432.253 30.2234 431.691 30.7825 430.999 30.7825H404.586C403.893 30.7825 403.332 30.2234 403.332 29.5337Z" fill="#8FE4FF"/>
<path fill-rule="evenodd" clip-rule="evenodd" d="M383.188 29.5337C383.188 28.844 383.748 28.285 384.441 28.285H397.23C397.923 28.285 398.484 28.844 398.484 29.5337C398.484 30.2234 397.923 30.7825 397.23 30.7825H384.441C383.748 30.7825 383.188 30.2234 383.188 29.5337Z" fill="#8FE4FF"/>
<path fill-rule="evenodd" clip-rule="evenodd" d="M403.332 22.8744C403.332 22.1847 403.893 21.6257 404.586 21.6257H430.999C431.692 21.6257 432.253 22.1847 432.253 22.8744C432.253 23.5641 431.692 24.1232 430.999 24.1232H404.586C403.893 24.1232 403.332 23.5641 403.332 22.8744Z" fill="#66F7DD"/>
<path fill-rule="evenodd" clip-rule="evenodd" d="M383.188 22.8744C383.188 22.1847 383.749 21.6257 384.441 21.6257H397.231C397.923 21.6257 398.485 22.1847 398.485 22.8744C398.485 23.5641 397.923 24.1232 397.231 24.1232H384.441C383.749 24.1232 383.188 23.5641 383.188 22.8744Z" fill="#66F7DD"/>
<path fill-rule="evenodd" clip-rule="evenodd" d="M417.542 36.1947C417.542 35.505 418.102 34.9459 418.795 34.9459H430.999C431.691 34.9459 432.253 35.505 432.253 36.1947C432.253 36.8843 431.691 37.4434 430.999 37.4434H418.795C418.102 37.4434 417.542 36.8843 417.542 36.1947Z" fill="#8FE4FF"/>
<path fill-rule="evenodd" clip-rule="evenodd" d="M383.188 36.1947C383.188 35.505 383.748 34.9459 384.441 34.9459H411.607C412.3 34.9459 412.861 35.505 412.861 36.1947C412.861 36.8843 412.3 37.4434 411.607 37.4434H384.441C383.748 37.4434 383.188 36.8843 383.188 36.1947Z" fill="#8FE4FF"/>
<path d="M442.118 61.7511H385.361C384.359 61.7511 383.438 60.9185 383.438 59.8363V51.4282C383.438 50.4293 384.275 49.5135 385.361 49.5135H442.118C443.121 49.5135 444.04 50.3461 444.04 51.4282V59.9196C443.956 60.9185 443.121 61.7511 442.118 61.7511Z" fill="#4382FF"/>
<path fill-rule="evenodd" clip-rule="evenodd" d="M70.235 33.3634C71.666 33.3634 72.8262 32.2079 72.8262 30.7827C72.8262 29.3574 71.666 28.2019 70.235 28.2019C68.8039 28.2019 67.6438 29.3574 67.6438 30.7827C67.6438 32.2079 68.8039 33.3634 70.235 33.3634ZM73.6621 30.7827C73.6621 32.6677 72.1277 34.1959 70.235 34.1959C68.3422 34.1959 66.8079 32.6677 66.8079 30.7827C66.8079 28.8976 68.3422 27.3695 70.235 27.3695C72.1277 27.3695 73.6621 28.8976 73.6621 30.7827Z" fill="#4382FF"/>
<path fill-rule="evenodd" clip-rule="evenodd" d="M80.5172 33.3634C81.9483 33.3634 83.1087 32.2079 83.1087 30.7827C83.1087 29.3574 81.9483 28.2019 80.5172 28.2019C79.0861 28.2019 77.926 29.3574 77.926 30.7827C77.926 32.2079 79.0861 33.3634 80.5172 33.3634ZM83.9443 30.7827C83.9443 32.6677 82.4101 34.1959 80.5172 34.1959C78.6245 34.1959 77.0901 32.6677 77.0901 30.7827C77.0901 28.8976 78.6245 27.3695 80.5172 27.3695C82.4101 27.3695 83.9443 28.8976 83.9443 30.7827Z" fill="#4382FF"/>
<path fill-rule="evenodd" clip-rule="evenodd" d="M91.0486 33.3634C92.4795 33.3634 93.6398 32.2079 93.6398 30.7827C93.6398 29.3574 92.4795 28.2019 91.0486 28.2019C89.6177 28.2019 88.4574 29.3574 88.4574 30.7827C88.4574 32.2079 89.6177 33.3634 91.0486 33.3634ZM94.4762 30.7827C94.4762 32.6677 92.9412 34.1959 91.0486 34.1959C89.156 34.1959 87.6218 32.6677 87.6218 30.7827C87.6218 28.8976 89.156 27.3695 91.0486 27.3695C92.9412 27.3695 94.4762 28.8976 94.4762 30.7827Z" fill="#4382FF"/>
<path opacity="0.64" d="M152.892 176.01H9.28808C8.70293 176.01 8.20142 175.511 8.20142 174.928V151.702C8.20142 151.118 8.70293 150.62 9.28808 150.62H152.892C153.477 150.62 153.979 151.118 153.979 151.702V174.928C153.979 175.511 153.477 176.01 152.892 176.01Z" fill="#B3CAF8"/>
<path fill-rule="evenodd" clip-rule="evenodd" d="M125.909 159.776C126.419 160.361 127.128 161.107 127.986 161.85C129.871 163.481 132.204 164.856 134.586 164.856C136.968 164.856 139.301 163.481 141.186 161.85C142.044 161.107 142.752 160.361 143.262 159.776C142.752 159.192 142.044 158.445 141.186 157.702C139.301 156.071 136.968 154.696 134.586 154.696C132.204 154.696 129.871 156.071 127.986 157.702C127.128 158.445 126.419 159.192 125.909 159.776ZM145.619 159.776C147.116 158.716 147.116 158.716 147.116 158.715L147.113 158.712L147.108 158.704L147.093 158.682C147.079 158.664 147.061 158.641 147.039 158.611C146.994 158.549 146.93 158.465 146.848 158.36C146.685 158.149 146.449 157.855 146.148 157.506C145.548 156.809 144.678 155.877 143.596 154.94C141.489 153.117 138.305 151.037 134.586 151.037C130.866 151.037 127.682 153.117 125.576 154.94C124.493 155.877 123.623 156.809 123.023 157.506C122.722 157.855 122.487 158.149 122.323 158.36C122.242 158.465 122.178 158.549 122.133 158.611C122.11 158.641 122.092 158.664 122.079 158.682L122.064 158.704L122.058 158.712L122.055 158.715C122.055 158.716 122.055 158.716 123.552 159.776L122.055 158.716L121.299 159.776L122.055 160.836L123.552 159.776C122.055 160.836 122.055 160.837 122.055 160.838L122.058 160.841L122.064 160.848L122.079 160.87C122.092 160.887 122.11 160.912 122.133 160.942C122.178 161.003 122.242 161.087 122.323 161.193C122.487 161.403 122.722 161.697 123.023 162.047C123.623 162.744 124.493 163.675 125.576 164.612C127.682 166.435 130.866 168.515 134.586 168.515C138.305 168.515 141.489 166.435 143.596 164.612C144.678 163.675 145.548 162.744 146.148 162.047C146.449 161.697 146.685 161.403 146.848 161.193C146.93 161.087 146.994 161.003 147.039 160.942C147.061 160.912 147.079 160.887 147.093 160.87L147.108 160.848L147.113 160.841L147.115 160.838L147.116 160.838C147.116 160.837 147.116 160.836 145.619 159.776ZM145.619 159.776L147.116 160.836L147.873 159.776L147.116 158.716L145.619 159.776ZM125.048 160.838C125.048 160.839 125.048 160.838 125.048 160.838V160.838ZM125.048 158.714C125.048 158.714 125.048 158.713 125.048 158.714V158.714ZM144.123 160.838C144.123 160.838 144.124 160.838 144.123 160.838V160.838Z" fill="#4382FF"/>
<path d="M134.586 163.439C136.617 163.439 138.264 161.799 138.264 159.775C138.264 157.752 136.617 156.112 134.586 156.112C132.555 156.112 130.908 157.752 130.908 159.775C130.908 161.799 132.555 163.439 134.586 163.439Z" fill="#4382FF"/>
<path fill-rule="evenodd" clip-rule="evenodd" d="M11.127 147.04L11.5449 146.624H157.322L157.74 147.04V172.43L157.322 172.847H11.5449L11.127 172.43V147.04ZM11.9628 147.456V172.015H156.904V147.456H11.9628Z" fill="#0F6FFF"/>
<path d="M33.4438 340.676H31.6885V355.411H33.4438V340.676Z" fill="#4382FF"/>
<path d="M40.4649 340.676H38.7095V355.411H40.4649V340.676Z" fill="#4382FF"/>
<path d="M43.4931 345.448V343.7H28.698V345.448H43.4931Z" fill="#4382FF"/>
<path d="M43.4489 352.481V350.733H28.6538V352.481H43.4489Z" fill="#4382FF"/>
<path d="M18.5664 345.338V350.833L21.9935 348.085L18.5664 345.338Z" fill="#4382FF"/>
<path d="M74.926 345.421H50.7478V350.666H74.926V345.421Z" fill="#4382FF"/>
<path d="M33.4445 372.06H31.6892V386.795H33.4445V372.06Z" fill="#4382FF"/>
<path d="M40.4656 372.06H38.7102V386.795H40.4656V372.06Z" fill="#4382FF"/>
<path d="M43.4863 376.826V375.078H28.6912V376.826H43.4863Z" fill="#4382FF"/>
<path d="M43.527 383.859V382.111H28.7319V383.859H43.527Z" fill="#4382FF"/>
<path d="M18.5664 376.723V382.217L21.9935 379.47L18.5664 376.723Z" fill="#4382FF"/>
<path d="M70.103 376.804H50.7478V382.049H70.103V376.804Z" fill="#4382FF"/>
<path d="M33.446 152.367H31.6907V167.102H33.446V152.367Z" fill="#8FE4FF"/>
<path d="M40.467 152.367H38.7117V167.102H40.467V152.367Z" fill="#8FE4FF"/>
<path d="M43.4794 157.125V155.377H28.6843V157.125H43.4794Z" fill="#8FE4FF"/>
<path d="M43.5202 164.158V162.41H28.7251V164.158H43.5202Z" fill="#8FE4FF"/>
<path d="M18.5664 157.03V162.524L21.9935 159.777L18.5664 157.03Z" fill="#8FE4FF"/>
<path d="M76.7436 157.113H50.7478V162.357H76.7436V157.113Z" fill="#8FE4FF"/>
<path d="M33.4443 183.752H31.689V198.487H33.4443V183.752Z" fill="#4382FF"/>
<path d="M40.4653 183.752H38.71V198.487H40.4653V183.752Z" fill="#4382FF"/>
<path d="M43.471 188.503V186.755H28.676V188.503H43.471Z" fill="#4382FF"/>
<path d="M43.5118 195.536V193.788H28.7168V195.536H43.5118Z" fill="#4382FF"/>
<path d="M18.5664 188.414V193.909L21.9935 191.161L18.5664 188.414Z" fill="#4382FF"/>
<path d="M122.466 188.496H50.7478V193.741H122.466V188.496Z" fill="#4382FF"/>
<path d="M33.444 215.136H31.6887V229.87H33.444V215.136Z" fill="#4382FF"/>
<path d="M40.4651 215.136H38.7097V229.87H40.4651V215.136Z" fill="#4382FF"/>
<path d="M43.4642 219.879V218.132H28.6692V219.879H43.4642Z" fill="#4382FF"/>
<path d="M43.505 226.912V225.164H28.71V226.912H43.505Z" fill="#4382FF"/>
<path d="M18.5664 219.798V225.292L21.9935 222.546L18.5664 219.798Z" fill="#4382FF"/>
<path d="M89.9506 219.881H50.7478V225.126H89.9506V219.881Z" fill="#4382FF"/>
<path d="M33.4456 246.521H31.6902V261.257H33.4456V246.521Z" fill="#4382FF"/>
<path d="M40.4667 246.521H38.7114V261.257H40.4667V246.521Z" fill="#4382FF"/>
<path d="M43.4574 251.259V249.51H28.6624V251.259H43.4574Z" fill="#4382FF"/>
<path d="M43.4981 258.291V256.544H28.7031V258.291H43.4981Z" fill="#4382FF"/>
<path d="M18.5664 251.184V256.678L21.9935 253.931L18.5664 251.184Z" fill="#4382FF"/>
<path d="M75.2391 251.267H50.7478V256.512H75.2391V251.267Z" fill="#4382FF"/>
<path d="M33.4438 277.906H31.6885V292.641H33.4438V277.906Z" fill="#4382FF"/>
<path d="M40.4649 277.906H38.7095V292.641H40.4649V277.906Z" fill="#4382FF"/>
<path d="M43.4489 282.635V280.887H28.6538V282.635H43.4489Z" fill="#4382FF"/>
<path d="M43.4899 289.668V287.92H28.6948V289.668H43.4899Z" fill="#4382FF"/>
<path d="M18.5664 282.568V287.98L21.9935 285.316L18.5664 282.568Z" fill="#4382FF"/>
<path d="M136.342 282.652H50.7478V287.895H136.342V282.652Z" fill="#4382FF"/>
<path d="M33.4445 309.29H31.6892V324.025H33.4445V309.29Z" fill="#4382FF"/>
<path d="M40.4656 309.29H38.7102V324.025H40.4656V309.29Z" fill="#4382FF"/>
<path d="M43.527 314.013V312.265H28.7319V314.013H43.527Z" fill="#4382FF"/>
<path d="M43.4828 321.046V319.298H28.6877V321.046H43.4828Z" fill="#4382FF"/>
<path d="M18.5664 313.87V319.364L21.9935 316.617L18.5664 313.87Z" fill="#4382FF"/>
<path d="M89.9506 314.035H50.7478V319.28H89.9506V314.035Z" fill="#4382FF"/>
<path d="M568.314 381.949H546.326C530.509 381.949 517.714 366.619 517.714 347.668V266.548C517.714 247.597 530.509 232.266 546.326 232.266H568.314C584.131 232.266 596.926 247.597 596.926 266.548V347.668C596.926 366.619 584.131 381.949 568.314 381.949Z" fill="#4382FF"/>
<path d="M557.321 322.554C550.056 322.554 544.077 315.467 544.077 306.684V232.266H570.502V306.684C570.566 315.467 564.65 322.554 557.321 322.554Z" fill="black" fill-opacity="0.6"/>
<path fill-rule="evenodd" clip-rule="evenodd" d="M552.321 244.412C557.608 243.784 562.511 246.632 564.755 251.144C565.578 249.609 566.768 248.239 568.299 247.176C573.473 243.584 580.591 244.849 584.198 250.001L592.94 262.491L596.956 279.757L600.598 280.811L617.633 298.238L617.084 304.524L627.195 314.846L622.841 343.902L621.074 361.262C620.522 365.904 619.172 370.547 617.026 374.761C611.568 385.451 600.896 406.707 598.381 414.404C596.495 421.699 598.405 429.931 599.78 435.861C600.328 438.223 601.965 441.345 599.78 443.223C574.95 464.563 531.593 460.839 536.13 441.647C540.666 422.454 536.21 412.578 530.564 400.07C529.096 396.818 527.548 393.388 526.057 389.57C525.177 388.379 524.492 387.015 524.057 385.512L517.541 362.926L513.131 330.298V329.439C513.131 301.401 519.505 292.265 529.098 293.149C542.971 294.427 541.084 309.446 539.728 320.235C539.489 322.135 539.266 323.903 539.15 325.443C539.063 326.587 538.994 327.567 538.948 328.329C538.936 328.512 538.927 328.67 538.92 328.804C540.071 337.318 543.428 350.715 547.895 342.998C547.896 342.876 547.9 342.754 547.905 342.632V342.449L550.313 302.97L543.428 274.342L543.244 273.548L543.183 272.815L541.466 257.972C540.668 251.253 545.575 245.145 552.321 244.412ZM567.708 268.869L567.292 265.627L571.684 271.9L575.807 289.624L575.088 297.749L567.708 268.869Z" fill="#B3CAF8"/>
<path fill-rule="evenodd" clip-rule="evenodd" d="M524.125 300.506C524.319 300.563 524.43 300.764 524.374 300.957C523.761 303.051 522.74 306.331 521.666 309.366C521.129 310.884 520.577 312.345 520.055 313.568C519.538 314.782 519.038 315.791 518.6 316.384C518.141 317.007 517.569 317.364 516.947 317.513C516.333 317.66 515.692 317.601 515.088 317.436C513.886 317.107 512.748 316.338 512.065 315.736C511.914 315.602 511.9 315.372 512.033 315.222C512.167 315.072 512.398 315.058 512.549 315.191C513.182 315.749 514.223 316.444 515.281 316.733C515.807 316.877 516.317 316.916 516.775 316.805C517.226 316.697 517.651 316.441 518.011 315.953C518.394 315.434 518.866 314.496 519.383 313.283C519.896 312.08 520.443 310.635 520.976 309.125C522.045 306.104 523.062 302.838 523.672 300.754C523.728 300.561 523.931 300.45 524.125 300.506Z" fill="#4382FF"/>
<path fill-rule="evenodd" clip-rule="evenodd" d="M569.123 277.908C569.315 277.846 569.52 277.951 569.583 278.142L578.166 304.475L575.861 326.96C575.84 327.16 575.661 327.306 575.461 327.286C575.26 327.265 575.114 327.086 575.134 326.886L577.424 304.554L568.887 278.367C568.825 278.175 568.93 277.97 569.123 277.908Z" fill="#4382FF"/>
<path fill-rule="evenodd" clip-rule="evenodd" d="M592.813 264.103C593.006 264.044 593.211 264.152 593.27 264.344L604.096 299.387L601.966 318.293C601.943 318.493 601.763 318.636 601.562 318.613C601.361 318.591 601.217 318.411 601.24 318.211L603.354 299.456L592.571 264.557C592.512 264.366 592.62 264.161 592.813 264.103Z" fill="#4382FF"/>
<path d="M44.2267 110.536H31.6885V123.023H44.2267V110.536Z" fill="#4382FF"/>
<path d="M62.5328 110.536H49.9946V123.023H62.5328V110.536Z" fill="#4382FF"/>
<path d="M80.8373 110.536H68.2991V123.023H80.8373V110.536Z" fill="#4382FF"/>
<path d="M98.9765 110.536H86.4387V123.023H98.9765V110.536Z" fill="#4382FF"/>
<path d="M44.2273 91.4716H31.6892V103.958H44.2273V91.4716Z" fill="#4382FF"/>
<path d="M62.5328 91.4716H49.9946V103.958H62.5328V91.4716Z" fill="#4382FF"/>
<path d="M80.8373 91.4716H68.2991V103.958H80.8373V91.4716Z" fill="#4382FF"/>
<path d="M475.391 287.64C477.864 287.64 479.869 285.643 479.869 283.18V238.409C479.869 235.946 477.864 233.95 475.391 233.95H474.943C472.47 233.95 470.466 235.946 470.466 238.409V283.18C470.466 285.643 472.47 287.64 474.943 287.64H475.391Z" fill="#B3CAF8"/>
<path d="M345.791 317.424C348.264 317.424 350.268 315.428 350.268 312.965V268.193C350.268 265.73 348.264 263.734 345.791 263.734H345.343C342.87 263.734 340.865 265.73 340.865 268.193V312.965C340.865 315.428 342.87 317.424 345.343 317.424H345.791Z" fill="#B3CAF8"/>
<path d="M345.791 373.857C348.264 373.857 350.268 371.86 350.268 369.398V324.626C350.268 322.164 348.264 320.167 345.791 320.167H345.343C342.87 320.167 340.865 322.164 340.865 324.626V369.398C340.865 371.86 342.87 373.857 345.343 373.857H345.791Z" fill="#B3CAF8"/>
<path d="M344.091 202.362C344.091 197.436 348.1 193.443 353.045 193.443H468.003C472.949 193.443 476.959 197.436 476.959 202.362V444.659C476.959 449.584 472.949 453.577 468.003 453.577H353.045C348.1 453.577 344.091 449.584 344.091 444.659V202.362Z" fill="#8FE4FF"/>
<path d="M359.363 221.67C359.363 216.252 363.773 211.86 369.214 211.86H449.8C455.241 211.86 459.651 216.252 459.651 221.67V267.092C459.651 272.511 455.241 276.903 449.8 276.903H369.214C363.773 276.903 359.363 272.511 359.363 267.092V221.67Z" fill="#F2F4FF"/>
<path d="M359.363 295.93C359.363 292.974 361.768 290.579 364.736 290.579H399.647C402.614 290.579 405.019 292.974 405.019 295.93V327.226C405.019 330.182 402.614 332.578 399.647 332.578H364.736C361.768 332.578 359.363 330.182 359.363 327.226V295.93Z" fill="#F2F4FF"/>
<path d="M359.363 345.724C359.363 342.769 361.768 340.373 364.736 340.373H399.647C402.614 340.373 405.019 342.769 405.019 345.724V377.021C405.019 379.976 402.614 382.372 399.647 382.372H364.736C361.768 382.372 359.363 379.976 359.363 377.021V345.724Z" fill="#F2F4FF"/>
<path d="M359.363 395.518C359.363 392.563 361.768 390.167 364.736 390.167H399.647C402.614 390.167 405.019 392.563 405.019 395.518V420.017H359.363V395.518Z" fill="#F2F4FF"/>
<path d="M414.803 295.93C414.803 292.974 417.209 290.579 420.177 290.579H455.088C458.054 290.579 460.46 292.974 460.46 295.93V327.226C460.46 330.182 458.054 332.578 455.088 332.578H420.177C417.209 332.578 414.803 330.182 414.803 327.226V295.93Z" fill="#F2F4FF"/>
<path d="M414.803 345.724C414.803 342.769 417.209 340.373 420.177 340.373H455.088C458.054 340.373 460.46 342.769 460.46 345.724V377.021C460.46 379.976 458.054 382.372 455.088 382.372H420.177C417.209 382.372 414.803 379.976 414.803 377.021V345.724Z" fill="#F2F4FF"/>
<path d="M414.803 395.518C414.803 392.563 417.209 390.167 420.177 390.167H455.088C458.054 390.167 460.46 392.563 460.46 395.518V420.017H414.803V395.518Z" fill="#F2F4FF"/>
<path d="M400.371 319.569C399.393 318.595 397.729 318.595 396.751 319.569L395.479 320.836L394.207 319.569C393.228 318.595 391.565 318.595 390.587 319.569C389.609 320.543 389.609 322.2 390.587 323.175L391.859 324.441L395.479 328.047L399.1 324.441L400.371 323.175C401.35 322.2 401.35 320.543 400.371 319.569Z" fill="#4382FF"/>
<path d="M400.371 370.711C399.393 369.737 397.729 369.737 396.751 370.711L395.479 371.978L394.207 370.711C393.228 369.737 391.565 369.737 390.587 370.711C389.609 371.685 389.609 373.342 390.587 374.317L391.859 375.583L395.479 379.189L399.1 375.583L400.371 374.317C401.35 373.342 401.35 371.685 400.371 370.711Z" fill="#DADFF7"/>
<path d="M455.812 319.569C454.833 318.595 453.17 318.595 452.191 319.569L450.92 320.836L449.648 319.569C448.669 318.595 447.006 318.595 446.027 319.569C445.049 320.543 445.049 322.2 446.027 323.175L447.299 324.441L450.92 328.047L454.54 324.441L455.812 323.175C456.79 322.2 456.79 320.543 455.812 319.569Z" fill="#DADFF7"/>
<path d="M455.812 370.711C454.833 369.737 453.17 369.737 452.191 370.711L450.92 371.978L449.648 370.711C448.669 369.737 447.006 369.737 446.027 370.711C445.049 371.685 445.049 373.342 446.027 374.317L447.299 375.583L450.92 379.189L454.54 375.583L455.812 374.317C456.79 373.342 456.79 371.685 455.812 370.711Z" fill="#DADFF7"/>
<path fill-rule="evenodd" clip-rule="evenodd" d="M383.058 223.554C375.716 223.554 369.764 229.482 369.764 236.795C369.764 244.107 375.716 250.035 383.058 250.035C390.399 250.035 396.352 244.107 396.352 236.795C396.352 229.482 390.399 223.554 383.058 223.554ZM367.794 236.795C367.794 228.399 374.628 221.593 383.058 221.593C391.488 221.593 398.321 228.399 398.321 236.795C398.321 245.19 391.488 251.996 383.058 251.996C374.628 251.996 367.794 245.19 367.794 236.795Z" fill="#B3CAF8"/>
<path fill-rule="evenodd" clip-rule="evenodd" d="M371.69 246.056C373.612 241.704 377.969 238.658 383.059 238.658C388.148 238.658 392.505 241.704 394.427 246.056L394.687 246.646L394.247 247.118C391.457 250.109 387.488 251.997 383.059 251.997C378.629 251.997 374.66 250.109 371.87 247.118L371.43 246.646L371.69 246.056ZM373.777 246.256C376.179 248.592 379.444 250.035 383.059 250.035C386.673 250.035 389.939 248.592 392.34 246.256C390.602 242.906 387.103 240.62 383.059 240.62C379.014 240.62 375.515 242.906 373.777 246.256Z" fill="#B3CAF8"/>
<path fill-rule="evenodd" clip-rule="evenodd" d="M383.058 229.242C380.448 229.242 378.331 231.35 378.331 233.95C378.331 236.55 380.448 238.657 383.058 238.657C385.669 238.657 387.785 236.55 387.785 233.95C387.785 231.35 385.669 229.242 383.058 229.242ZM376.362 233.95C376.362 230.266 379.36 227.281 383.058 227.281C386.757 227.281 389.755 230.266 389.755 233.95C389.755 237.634 386.757 240.619 383.058 240.619C379.36 240.619 376.362 237.634 376.362 233.95Z" fill="#B3CAF8"/>
<path d="M405.02 234.586H448.772V239.638H405.02V234.586Z" fill="#DEE2FC"/>
<path d="M405.02 244.381H448.772V249.433H405.02V244.381Z" fill="#DEE2FC"/>
<path d="M368.779 259.859H448.771V264.911H368.779V259.859Z" fill="#DEE2FC"/>
<path d="M384.451 191.807C384.451 190.33 385.654 189.132 387.137 189.132H438.285C439.768 189.132 440.971 190.33 440.971 191.807V197.866C440.971 199.344 439.768 200.542 438.285 200.542H387.137C385.654 200.542 384.451 199.344 384.451 197.866V191.807Z" fill="#1A2370"/>
<path d="M384.451 442.965C384.451 442.6 384.749 442.303 385.115 442.303H440.306C440.674 442.303 440.971 442.6 440.971 442.965C440.971 443.331 440.674 443.627 440.306 443.627H385.115C384.749 443.627 384.451 443.331 384.451 442.965Z" fill="#4382FF"/>
<path fill-rule="evenodd" clip-rule="evenodd" d="M478.23 169.186C478.23 168.539 478.758 168.013 479.409 168.013H533.528C534.178 168.013 534.706 168.539 534.706 169.186C534.706 169.835 534.178 170.36 533.528 170.36H479.409C478.758 170.36 478.23 169.835 478.23 169.186Z" fill="#4382FF"/>
<path fill-rule="evenodd" clip-rule="evenodd" d="M497.16 156.67C497.16 156.023 497.687 155.497 498.338 155.497H523.159C523.81 155.497 524.337 156.023 524.337 156.67C524.337 157.319 523.81 157.844 523.159 157.844H498.338C497.687 157.844 497.16 157.319 497.16 156.67Z" fill="#4382FF"/>
<path fill-rule="evenodd" clip-rule="evenodd" d="M478.23 156.67C478.23 156.023 478.758 155.497 479.409 155.497H491.348C491.998 155.497 492.526 156.023 492.526 156.67C492.526 157.319 491.998 157.844 491.348 157.844H479.409C478.758 157.844 478.23 157.319 478.23 156.67Z" fill="#4382FF"/>
<path fill-rule="evenodd" clip-rule="evenodd" d="M497.16 150.411C497.16 149.764 497.687 149.238 498.338 149.238H523.159C523.81 149.238 524.337 149.764 524.337 150.411C524.337 151.06 523.81 151.585 523.159 151.585H498.338C497.687 151.585 497.16 151.06 497.16 150.411Z" fill="#4382FF"/>
<path fill-rule="evenodd" clip-rule="evenodd" d="M478.23 150.411C478.23 149.764 478.758 149.238 479.408 149.238H491.347C491.998 149.238 492.526 149.764 492.526 150.411C492.526 151.06 491.998 151.585 491.347 151.585H479.408C478.758 151.585 478.23 151.06 478.23 150.411Z" fill="#4382FF"/>
<path fill-rule="evenodd" clip-rule="evenodd" d="M510.513 162.927C510.513 162.28 511.04 161.754 511.691 161.754H523.159C523.81 161.754 524.337 162.28 524.337 162.927C524.337 163.576 523.81 164.101 523.159 164.101H511.691C511.04 164.101 510.513 163.576 510.513 162.927Z" fill="#4382FF"/>
<path fill-rule="evenodd" clip-rule="evenodd" d="M478.23 162.927C478.23 162.28 478.758 161.754 479.409 161.754H504.936C505.587 161.754 506.115 162.28 506.115 162.927C506.115 163.576 505.587 164.101 504.936 164.101H479.409C478.758 164.101 478.23 163.576 478.23 162.927Z" fill="#4382FF"/>
<path d="M480.246 49.2632H467.708V61.7503H480.246V49.2632Z" fill="#4382FF"/>
<path d="M498.553 49.2632H486.014V61.7503H498.553V49.2632Z" fill="#4382FF"/>
<path d="M516.857 49.2632H504.319V61.7503H516.857V49.2632Z" fill="#4382FF"/>
<path d="M534.997 49.2632H522.458V61.7503H534.997V49.2632Z" fill="#4382FF"/>
<path d="M480.246 30.1991H467.708V42.6863H480.246V30.1991Z" fill="#4382FF"/>
<path d="M498.553 30.1991H486.014V42.6863H498.553V30.1991Z" fill="#4382FF"/>
<path d="M516.857 30.1991H504.319V42.6863H516.857V30.1991Z" fill="#4382FF"/>
<path d="M552.659 136.075H481.857C478.201 136.075 475.169 133.144 475.169 129.414V84.1215C475.169 80.48 478.112 77.4604 481.857 77.4604H552.659C556.315 77.4604 559.347 80.3911 559.347 84.1215V129.414C559.257 133.055 556.315 136.075 552.659 136.075Z" fill="#4382FF"/>
<path opacity="0.8" d="M495.983 85.2764H483.104V88.6508H495.983V85.2764Z" fill="#F2F4FF"/>
<path opacity="0.8" d="M551.784 96.3838C551.784 95.0045 550.662 93.8865 549.277 93.8865H531.945C530.56 93.8865 529.437 95.0045 529.437 96.3838V112.518C529.437 113.897 530.56 115.015 531.945 115.015H549.277C550.662 115.015 551.784 113.897 551.784 112.518V96.3838Z" fill="#F2F4FF"/>
<path opacity="0.8" fill-rule="evenodd" clip-rule="evenodd" d="M521.537 95.4912H483.104V93.8865H521.537V95.4912Z" fill="#F2F4FF"/>
<path opacity="0.8" fill-rule="evenodd" clip-rule="evenodd" d="M503.614 99.3989H483.104V97.7942H503.614V99.3989Z" fill="#F2F4FF"/>
<path opacity="0.8" fill-rule="evenodd" clip-rule="evenodd" d="M510.124 111.624C510.124 113.004 509.001 114.123 507.616 114.123H485.612C484.227 114.123 483.104 113.004 483.104 111.624V104.199C483.104 102.82 484.227 101.702 485.612 101.702H507.616C509.001 101.702 510.124 102.82 510.124 104.199V111.624Z" fill="#F2F4FF"/>
<path opacity="0.8" fill-rule="evenodd" clip-rule="evenodd" d="M525.94 111.624C525.94 113.004 524.817 114.123 523.432 114.123H516.127C514.742 114.123 513.619 113.004 513.619 111.624V104.199C513.619 102.82 514.742 101.702 516.127 101.702H523.432C524.817 101.702 525.94 102.82 525.94 104.199V111.624Z" fill="#F2F4FF"/>
<path opacity="0.8" fill-rule="evenodd" clip-rule="evenodd" d="M521.538 99.3989H506.468V97.7942H521.538V99.3989Z" fill="#F2F4FF"/>
<path d="M511.284 129.367H487.029C484.8 129.367 483.016 127.59 483.016 125.371C483.016 123.15 484.8 121.374 487.029 121.374H511.284C513.513 121.374 515.296 123.15 515.296 125.371C515.386 127.502 513.513 129.367 511.284 129.367Z" fill="#F2F4FF"/>
<path d="M608.839 211.335C608.839 209.714 606.27 209.714 606.27 211.335C606.27 212.956 608.839 212.956 608.839 211.335Z" fill="#B3CAF8"/>
<path d="M609.952 220.545C609.952 218.925 607.383 218.925 607.383 220.545C607.383 222.165 609.952 222.165 609.952 220.545Z" fill="#B3CAF8"/>
<path d="M605.329 216.877C605.329 215.257 602.76 215.257 602.76 216.877C602.76 218.583 605.329 218.583 605.329 216.877Z" fill="#B3CAF8"/>
<path d="M602.502 211.335C602.502 209.714 599.933 209.714 599.933 211.335C599.933 212.956 602.502 212.956 602.502 211.335Z" fill="#B3CAF8"/>
<path d="M616.888 222.336C616.888 220.716 614.32 220.716 614.32 222.336C614.32 223.956 616.888 223.956 616.888 222.336Z" fill="#B3CAF8"/>
<path d="M614.491 215.598C614.491 213.978 611.922 213.978 611.922 215.598C611.922 217.304 614.491 217.304 614.491 215.598Z" fill="#B3CAF8"/>
<path d="M622.541 218.328C622.541 216.707 619.972 216.707 619.972 218.328C619.972 219.948 622.541 219.948 622.541 218.328Z" fill="#B3CAF8"/>
<path d="M625.793 211.335C625.793 209.714 623.224 209.714 623.224 211.335C623.224 212.956 625.793 212.956 625.793 211.335Z" fill="#B3CAF8"/>
<path d="M636.841 211.59C636.841 209.97 634.272 209.97 634.272 211.59C634.272 213.295 636.841 213.295 636.841 211.59Z" fill="#B3CAF8"/>
<path d="M642.148 221.824C642.148 220.204 639.58 220.204 639.58 221.824C639.58 223.444 642.148 223.444 642.148 221.824Z" fill="#B3CAF8"/>
<path d="M644.375 237.857C644.375 236.237 641.806 236.237 641.806 237.857C641.806 239.478 644.375 239.478 644.375 237.857Z" fill="#B3CAF8"/>
<path d="M647.8 233.592C647.8 231.972 645.231 231.972 645.231 233.592C645.231 235.213 647.8 235.213 647.8 233.592Z" fill="#B3CAF8"/>
<path d="M646.517 252.867C646.517 251.247 643.948 251.247 643.948 252.867C643.948 254.487 646.517 254.487 646.517 252.867Z" fill="#B3CAF8"/>
<path d="M647.8 270.264C647.8 268.644 645.231 268.644 645.231 270.264C645.231 271.885 647.8 271.885 647.8 270.264Z" fill="#B3CAF8"/>
<path d="M642.148 214.661C642.148 213.04 639.58 213.04 639.58 214.661C639.58 216.281 642.148 216.281 642.148 214.661Z" fill="#B3CAF8"/>
<path d="M642.148 228.732C642.148 227.112 639.58 227.112 639.58 228.732C639.58 230.438 642.148 230.438 642.148 228.732Z" fill="#B3CAF8"/>
<path d="M622.541 225.917C622.541 224.297 619.972 224.297 619.972 225.917C619.972 227.537 622.541 227.537 622.541 225.917Z" fill="#B3CAF8"/>
<path d="M605.329 224.469C605.329 222.849 602.76 222.849 602.76 224.469C602.76 226.089 605.329 226.089 605.329 224.469Z" fill="#B3CAF8"/>
<path d="M628.534 222.336C628.534 220.716 625.965 220.716 625.965 222.336C625.965 223.956 628.534 223.956 628.534 222.336Z" fill="#B3CAF8"/>
<path d="M645.232 245.105C645.232 243.485 642.664 243.485 642.664 245.105C642.664 246.726 645.232 246.726 645.232 245.105Z" fill="#B3CAF8"/>
<path d="M645.232 260.713C645.232 259.092 642.664 259.092 642.664 260.713C642.664 262.334 645.232 262.334 645.232 260.713Z" fill="#B3CAF8"/>
<path d="M647.8 223.701C647.8 222.081 645.231 222.081 645.231 223.701C645.231 225.406 647.8 225.406 647.8 223.701Z" fill="#B3CAF8"/>
<path d="M635.213 224.469C635.213 222.849 632.644 222.849 632.644 224.469C632.644 226.089 635.213 226.089 635.213 224.469Z" fill="#B3CAF8"/>
<path d="M636.841 218.328C636.841 216.707 634.272 216.707 634.272 218.328C634.272 219.948 636.841 219.948 636.841 218.328Z" fill="#B3CAF8"/>
<path d="M636.841 232.825C636.841 231.205 634.272 231.205 634.272 232.825C634.272 234.53 636.841 234.53 636.841 232.825Z" fill="#B3CAF8"/>
<path d="M630.331 215.598C630.331 213.978 627.762 213.978 627.762 215.598C627.762 217.304 630.331 217.304 630.331 215.598Z" fill="#B3CAF8"/>
<path d="M618.515 211.59C618.515 209.97 615.946 209.97 615.946 211.59C615.946 213.295 618.515 213.295 618.515 211.59Z" fill="#B3CAF8"/>
<path d="M531.485 471.289C531.485 472.909 534.053 472.909 534.053 471.289C534.053 469.668 531.485 469.668 531.485 471.289Z" fill="#B3CAF8"/>
<path d="M530.371 462.078C530.371 463.698 532.94 463.698 532.94 462.078C532.94 460.458 530.371 460.458 530.371 462.078Z" fill="#B3CAF8"/>
<path d="M534.994 465.746C534.994 467.366 537.563 467.366 537.563 465.746C537.563 464.04 534.994 464.04 534.994 465.746Z" fill="#B3CAF8"/>
<path d="M537.82 471.289C537.82 472.909 540.389 472.909 540.389 471.289C540.389 469.668 537.82 469.668 537.82 471.289Z" fill="#B3CAF8"/>
<path d="M523.434 460.287C523.434 461.907 526.003 461.907 526.003 460.287C526.003 458.667 523.434 458.667 523.434 460.287Z" fill="#B3CAF8"/>
<path d="M525.832 467.025C525.832 468.645 528.401 468.645 528.401 467.025C528.401 465.32 525.832 465.32 525.832 467.025Z" fill="#B3CAF8"/>
<path d="M517.784 464.296C517.784 465.916 520.352 465.916 520.352 464.296C520.352 462.675 517.784 462.675 517.784 464.296Z" fill="#B3CAF8"/>
<path d="M514.529 471.289C514.529 472.909 517.097 472.909 517.097 471.289C517.097 469.668 514.529 469.668 514.529 471.289Z" fill="#B3CAF8"/>
<path d="M503.482 471.033C503.482 472.653 506.051 472.653 506.051 471.033C506.051 469.328 503.482 469.328 503.482 471.033Z" fill="#B3CAF8"/>
<path d="M498.173 460.799C498.173 462.42 500.742 462.42 500.742 460.799C500.742 459.179 498.173 459.179 498.173 460.799Z" fill="#B3CAF8"/>
<path d="M495.948 444.766C495.948 446.386 498.517 446.386 498.517 444.766C498.517 443.145 495.948 443.145 495.948 444.766Z" fill="#B3CAF8"/>
<path d="M492.523 449.031C492.523 450.651 495.092 450.651 495.092 449.031C495.092 447.411 492.523 447.411 492.523 449.031Z" fill="#B3CAF8"/>
<path d="M493.808 429.756C493.808 431.376 496.376 431.376 496.376 429.756C496.376 428.136 493.808 428.136 493.808 429.756Z" fill="#B3CAF8"/>
<path d="M492.523 412.359C492.523 413.98 495.092 413.98 495.092 412.359C495.092 410.738 492.523 410.738 492.523 412.359Z" fill="#B3CAF8"/>
<path d="M498.173 467.962C498.173 469.583 500.742 469.583 500.742 467.962C500.742 466.342 498.173 466.342 498.173 467.962Z" fill="#B3CAF8"/>
<path d="M498.173 453.891C498.173 455.511 500.742 455.511 500.742 453.891C500.742 452.186 498.173 452.186 498.173 453.891Z" fill="#B3CAF8"/>
<path d="M517.784 456.704C517.784 458.325 520.352 458.325 520.352 456.704C520.352 455.084 517.784 455.084 517.784 456.704Z" fill="#B3CAF8"/>
<path d="M534.994 458.155C534.994 459.775 537.563 459.775 537.563 458.155C537.563 456.535 534.994 456.535 534.994 458.155Z" fill="#B3CAF8"/>
<path d="M511.789 460.287C511.789 461.907 514.358 461.907 514.358 460.287C514.358 458.667 511.789 458.667 511.789 460.287Z" fill="#B3CAF8"/>
<path d="M495.091 437.518C495.091 439.138 497.66 439.138 497.66 437.518C497.66 435.898 495.091 435.898 495.091 437.518Z" fill="#B3CAF8"/>
<path d="M495.091 421.91C495.091 423.531 497.66 423.531 497.66 421.91C497.66 420.29 495.091 420.29 495.091 421.91Z" fill="#B3CAF8"/>
<path d="M492.523 458.922C492.523 460.542 495.092 460.542 495.092 458.922C495.092 457.217 492.523 457.217 492.523 458.922Z" fill="#B3CAF8"/>
<path d="M505.11 458.155C505.11 459.775 507.679 459.775 507.679 458.155C507.679 456.535 505.11 456.535 505.11 458.155Z" fill="#B3CAF8"/>
<path d="M503.482 464.296C503.482 465.916 506.051 465.916 506.051 464.296C506.051 462.675 503.482 462.675 503.482 464.296Z" fill="#B3CAF8"/>
<path d="M503.482 449.798C503.482 451.419 506.051 451.419 506.051 449.798C506.051 448.093 503.482 448.093 503.482 449.798Z" fill="#B3CAF8"/>
<path d="M509.992 467.025C509.992 468.645 512.56 468.645 512.56 467.025C512.56 465.32 509.992 465.32 509.992 467.025Z" fill="#B3CAF8"/>
<path d="M521.808 471.033C521.808 472.653 524.377 472.653 524.377 471.033C524.377 469.328 521.808 469.328 521.808 471.033Z" fill="#B3CAF8"/>
<path d="M546.146 227.463C549.442 223.296 564.839 223.296 568.134 227.463C569.505 229.195 568.134 232.267 568.134 232.267H546.146C546.146 232.267 544.776 229.195 546.146 227.463Z" fill="#4382FF"/>
<path d="M165.233 50.5807H162.021L163.584 52.9057L165.233 50.5807Z" fill="#1CCBAC"/>
<path d="M128.203 50.5807H124.991L126.555 52.9057L128.203 50.5807Z" fill="#1CCBAC"/>
<path d="M202.261 50.5807H199.049L200.613 52.9057L202.261 50.5807Z" fill="#1CCBAC"/>
<path d="M239.292 50.5807H236.08L237.643 52.9057L239.292 50.5807Z" fill="#1CCBAC"/>
<path fill-rule="evenodd" clip-rule="evenodd" d="M52.9922 79.3763V44.9342H53.8281V79.3763H52.9922Z" fill="#4382FF"/>
<path fill-rule="evenodd" clip-rule="evenodd" d="M58.7102 79.3765V17.4961H59.546V79.3765H58.7102Z" fill="#4382FF"/>
<path fill-rule="evenodd" clip-rule="evenodd" d="M47.2756 79.3758V57.6707H48.1115V79.3758H47.2756Z" fill="#4382FF"/>
<path fill-rule="evenodd" clip-rule="evenodd" d="M40.15 37.734H33.3717V44.4847H40.15V37.734ZM32.5359 36.9015V45.3172H40.9859V36.9015H32.5359Z" fill="#4382FF"/>
<path d="M37.9575 42.304H44.899V49.2172H37.9575V42.304Z" fill="#8FE4FF"/>
<path fill-rule="evenodd" clip-rule="evenodd" d="M636.957 465.51V431.068H637.793V465.51H636.957Z" fill="#4382FF"/>
<path fill-rule="evenodd" clip-rule="evenodd" d="M642.676 465.51V403.629H643.511V465.51H642.676Z" fill="#4382FF"/>
<path fill-rule="evenodd" clip-rule="evenodd" d="M631.239 465.509V443.804H632.076V465.509H631.239Z" fill="#4382FF"/>
<path fill-rule="evenodd" clip-rule="evenodd" d="M624.115 423.867H617.337V430.619H624.115V423.867ZM616.5 423.035V431.451H624.951V423.035H616.5Z" fill="#4382FF"/>
<path d="M621.922 428.437H628.864V435.35H621.922V428.437Z" fill="#8FE4FF"/>
<path d="M118.092 301.459H159.687V342.885H118.092V301.459Z" fill="#4382FF"/>
<path d="M126.906 310.238H134.187V317.489H126.906V310.238Z" fill="#8FE4FF"/>
<path d="M126.906 326.158H134.187V333.409H126.906V326.158Z" fill="#8FE4FF"/>
<path d="M144.55 310.238H151.831V317.489H144.55V310.238Z" fill="#8FE4FF"/>
<path d="M144.55 326.158H151.831V333.409H144.55V326.158Z" fill="#8FE4FF"/>
<path fill-rule="evenodd" clip-rule="evenodd" d="M175.12 313.916C175.582 313.916 175.956 314.288 175.956 314.748V327.436C175.956 327.896 175.582 328.268 175.12 328.268C174.658 328.268 174.284 327.896 174.284 327.436V314.748C174.284 314.288 174.658 313.916 175.12 313.916Z" fill="#B3CAF8"/>
<path fill-rule="evenodd" clip-rule="evenodd" d="M182.326 321.092C182.326 320.632 181.951 320.26 181.49 320.26H168.75C168.288 320.26 167.915 320.632 167.915 321.092C167.915 321.552 168.288 321.924 168.75 321.924H181.49C181.951 321.924 182.326 321.552 182.326 321.092Z" fill="#B3CAF8"/>
</svg>
