<svg width="48" height="48" viewBox="0 0 48 48" fill="none" xmlns="http://www.w3.org/2000/svg">
<path d="M41.7601 13.44C45.5201 10 43.4001 4 43.4001 4C43.4001 4 37.4001 4 35.3001 7.74C34.1001 7.3 32.8201 7.02 31.4801 7.02H25.5401C24.2401 7.02 23.0001 7.28 21.8401 7.7C19.7402 4 13.7802 4 13.7802 4C13.7802 4 11.6802 10 15.4202 13.44C15.4202 13.44 14.4402 16.38 14.4402 18.14C14.4402 23.46 18.2202 27.92 23.2201 29C22.8601 29.76 22.6601 30.58 22.6601 31.46V37.22C21.2801 37.54 17.9402 38.78 16.8202 35.36C15.9202 32.62 11.9602 27.48 6.68017 28C5.06017 28.14 3.86017 29.58 4.02017 31.2C4.18017 32.82 5.60017 34.04 7.22017 33.86C7.94017 33.78 10.2402 34.78 11.3402 37.54C12.0202 39.22 12.6402 40.8 13.9002 41.86C15.2402 43.02 17.0002 43.38 18.7202 43.38C19.7202 43.38 22.4201 43.24 23.2801 43.08C24.2401 45.02 34.3801 43.72 34.3801 40.5V31.44C34.3801 30.56 34.1601 29.72 33.8201 28.98C38.8201 27.9 42.6001 23.44 42.6001 18.12C42.6001 16.28 41.7601 13.44 41.7601 13.44Z" fill="#41347F" stroke="#F0F3FF" stroke-width="2" stroke-miterlimit="10" stroke-linecap="round" stroke-linejoin="round"/>
</svg>
