<svg width="1388" height="1020" viewBox="0 0 1388 1020" fill="none" xmlns="http://www.w3.org/2000/svg">
<path opacity="0.5" d="M114.84 495.852C114.84 1015 694 1015 694 495.852V0M694 0H411.077M694 0H993.565M694 0H404.42M694 0H367.807M694 0H361.15M694 0H1000.22M694 0H1006.88M694 0H1013.54M694 0H1020.19M694 0H1026.85M694 0L5 1015M694 0V507.5V1015M694 1015H361.15M694 1015H1026.85M694 1015H1033.51M694 1015H1040.16M694 1015H1046.82M694 1015H1053.48M694 1015H1060.14M694 1015H1066.79M694 1015H1073.45M694 1015H1080.11M694 1015H1086.76M694 1015H1093.42M694 1015H1100.08M694 1015H1106.73M694 1015H1113.39M694 1015H1120.05M694 1015H1126.71M694 1015H1133.36M694 1015H1140.02M694 1015H1146.68M694 1015H1153.33M694 1015H1159.99M694 1015H1166.65M694 1015H1173.3M694 1015H1179.96M694 1015H1186.62M694 1015H1193.28M694 1015H1199.93M694 1015H1206.59M694 1015H1213.25M694 1015H1219.9M694 1015H1226.56M694 1015H1233.22M694 1015H1239.87M694 1015H1246.53M694 1015H1253.19M694 1015H1259.85M694 1015H1266.5M694 1015H1273.16M694 1015H1279.82M694 1015H1286.47M694 1015H1293.13M694 1015H1299.79M694 1015H1306.44M694 1015H1313.1M694 1015H1319.76M694 1015H1326.42M694 1015H1333.07M694 1015H1339.73M694 1015H1346.39M694 1015H1353.04M694 1015H1359.7M694 1015L1383 0" stroke="white" stroke-opacity="0.25" stroke-width="10" stroke-linecap="round"/>
</svg>
