<svg width="48" height="48" viewBox="0 0 48 48" fill="none" xmlns="http://www.w3.org/2000/svg">
<path d="M38.68 44H9.32C6.38 44 4 41.62 4 38.68V9.32C4 6.38 6.38 4 9.32 4H38.66C41.62 4 44 6.38 44 9.32V38.66C44 41.62 41.62 44 38.68 44Z" fill="#41347F" stroke="#F0F3FF" stroke-width="2" stroke-miterlimit="10" stroke-linecap="round" stroke-linejoin="round"/>
<path d="M32 24C32 28.42 28.42 32 24 32C19.58 32 16 28.42 16 24C16 19.58 19.58 16 24 16C28.42 16 32 19.58 32 24Z" fill="#41347F" stroke="#F0F3FF" stroke-width="2" stroke-miterlimit="10" stroke-linecap="round" stroke-linejoin="round"/>
<path d="M38 11C38 11.56 37.56 12 37 12C36.44 12 36 11.56 36 11C36 10.44 36.44 10 37 10C37.56 10 38 10.44 38 11Z" stroke="#F0F3FF" stroke-width="2" stroke-miterlimit="10" stroke-linecap="round" stroke-linejoin="round"/>
</svg>
