<svg width="48" height="48" viewBox="0 0 48 48" fill="none" xmlns="http://www.w3.org/2000/svg">
<path d="M38.68 44H9.32C6.38 44 4 41.62 4 38.68V9.32C4 6.38 6.38 4 9.32 4H38.66C41.62 4 44 6.38 44 9.32V38.66C44 41.62 41.62 44 38.68 44Z" fill="#41347F" stroke="#F0F3FF" stroke-width="2" stroke-miterlimit="10" stroke-linecap="round" stroke-linejoin="round"/>
<path d="M14 20V34" stroke="#F0F3FF" stroke-width="2" stroke-miterlimit="10" stroke-linecap="round" stroke-linejoin="round"/>
<path d="M34 34C34 34 34 24.9 34 24.88C34 23.74 34.06 22.42 33.52 21.38C32.32 19.02 29.14 20.22 27.44 21.2C25.68 22.2 24.08 23.48 22.56 24.8C22.38 24.96 22.18 25.14 22 25.3V20.02V34" stroke="#F0F3FF" stroke-width="2" stroke-miterlimit="10" stroke-linecap="round" stroke-linejoin="round"/>
<path d="M14 14C14.5523 14 15 13.5523 15 13C15 12.4477 14.5523 12 14 12C13.4477 12 13 12.4477 13 13C13 13.5523 13.4477 14 14 14Z" stroke="#F0F3FF" stroke-width="2" stroke-miterlimit="10" stroke-linecap="round" stroke-linejoin="round"/>
</svg>
