<svg width="800" height="600" viewBox="0 0 800 600" fill="none" xmlns="http://www.w3.org/2000/svg">
<g clip-path="url(#clip0)">
<path d="M631.642 246.803H170.838C160.001 246.803 151.223 238.018 151.223 227.188V131.762C151.223 120.925 160.008 112.146 170.838 112.146H631.649C642.486 112.146 651.264 120.932 651.264 131.762V227.181C651.264 238.018 642.479 246.803 631.642 246.803Z" fill="#78C0E0"/>
<path fill-rule="evenodd" clip-rule="evenodd" d="M371.736 258.273C368.147 258.273 365.235 261.184 365.235 264.774V384.327C365.235 387.916 368.147 390.828 371.736 390.828H430.731C434.321 390.828 437.233 387.916 437.233 384.327V264.774C437.233 261.184 434.321 258.273 430.731 258.273H371.736ZM363.127 264.774C363.127 260.02 366.982 256.165 371.736 256.165H430.731C435.485 256.165 439.341 260.02 439.341 264.774V384.327C439.341 389.081 435.485 392.936 430.731 392.936H371.736C366.982 392.936 363.127 389.081 363.127 384.327V264.774Z" fill="#41347F"/>
<path d="M663.643 193.556L664.132 235.98L651.291 236.653L651.264 194.684" fill="#FFBEA8"/>
<path d="M622.692 282.025C622.359 281.842 622.244 281.821 622.57 281.665C622.869 281.516 623.562 281.224 624.397 280.714C626.123 279.736 628.392 277.989 630.682 275.938C632.958 273.845 635.336 271.446 637.605 268.851C638.733 267.547 639.875 266.222 640.969 264.863L642.586 262.824L643.979 260.997L641.356 269.884L642.042 254.162L642.491 246.301C642.633 243.678 642.79 241.062 642.98 238.44L643.53 230.579L644.169 222.718C644.651 217.479 645.12 212.241 645.779 206.996H669.647C670.307 212.234 670.769 217.472 671.258 222.718L671.896 230.579L672.447 238.44C672.637 241.062 672.793 243.678 672.936 246.301L673.384 254.162L674.071 269.884L674.268 274.32L671.448 278.764L670.374 280.463L669.396 281.95C668.751 282.929 668.092 283.873 667.419 284.811C666.074 286.686 664.694 288.534 663.22 290.335C660.278 293.942 657.126 297.496 653.416 300.866C649.713 304.256 645.534 307.531 640.106 310.371C637.361 311.744 634.297 313.048 630.655 313.877C628.841 314.285 626.904 314.59 624.853 314.699C622.807 314.794 620.647 314.719 618.473 314.366L622.692 282.025Z" fill="#78C0E0"/>
<path d="M564.596 528.074L575.106 576.946L587.628 577.605L576.092 530.051L564.596 528.074Z" fill="#FFBEA8"/>
<path d="M206.893 246.382L210.317 254.413C210.616 255.119 210.398 255.941 209.787 256.41C208.618 257.287 206.75 257.803 206.566 257.742" fill="#D1874B"/>
<path d="M208.512 242.516C208.512 242.516 208.145 265.358 203.205 269.021C203.205 269.021 199.298 269.639 195.731 269.639L193.849 275.258L192.491 281.373C192.26 282.208 192.912 281.549 192.076 281.794L187.137 283.227C177.529 283.227 169.111 268.688 169.111 259.08V242.516C169.111 234.308 175.763 227.657 183.97 227.657H193.652C201.853 227.657 208.512 234.308 208.512 242.516Z" fill="#D1874B"/>
<path fill-rule="evenodd" clip-rule="evenodd" d="M208.508 245.759C208.574 246.128 208.329 246.482 207.96 246.548L204.502 247.173C204.132 247.24 203.779 246.995 203.712 246.626C203.645 246.256 203.891 245.903 204.26 245.836L207.718 245.211C208.087 245.144 208.441 245.39 208.508 245.759Z" fill="#1F1C2E"/>
<path d="M205.416 250.221C205.416 251.002 206.048 251.634 206.829 251.634C207.611 251.634 207.611 248.808 206.829 248.808C206.055 248.808 205.416 249.44 205.416 250.221Z" fill="#1F1C2E"/>
<path fill-rule="evenodd" clip-rule="evenodd" d="M298.986 257.156L248.008 296.828L240.08 286.641L291.058 246.969L298.986 257.156Z" fill="#D1874B"/>
<path fill-rule="evenodd" clip-rule="evenodd" d="M153.097 210.056L144.944 249.022L132.309 246.378L140.462 207.413L153.097 210.056Z" fill="#D1874B"/>
<path d="M164.031 577.618H173.652L174.189 561.72H162.951L164.031 577.618Z" fill="#D1874B"/>
<path fill-rule="evenodd" clip-rule="evenodd" d="M248.192 470.233C250.043 470.598 251.821 471.542 252.749 473.348C253.884 475.55 253.666 478.952 251.378 480.859C250.123 481.908 248.456 482.318 246.943 482.212C245.443 482.107 243.952 481.481 243.154 480.279C242.698 479.593 242.462 478.708 242.468 477.888C242.474 477.085 242.718 476.189 243.409 475.646L243.41 475.645C244.136 475.076 245.177 475.034 246.162 475.329C247.172 475.631 248.241 476.312 249.161 477.38C249.406 477.665 249.374 478.094 249.09 478.338C248.805 478.583 248.376 478.552 248.131 478.267C247.36 477.372 246.505 476.85 245.773 476.631C245.016 476.404 244.494 476.522 244.248 476.714C244.016 476.897 243.832 477.302 243.827 477.898C243.823 478.478 243.995 479.091 244.286 479.526V479.527C244.773 480.261 245.795 480.77 247.037 480.857C248.265 480.942 249.567 480.602 250.507 479.816H250.508C252.214 478.394 252.444 475.722 251.541 473.97V473.969C250.866 472.657 249.532 471.882 247.929 471.566C246.327 471.25 244.552 471.417 243.176 471.895H243.175C241.755 472.389 240.28 473.379 239.23 474.65C238.181 475.92 237.6 477.41 237.822 478.928C238.11 480.904 239.662 482.212 241.396 483.064C243.111 483.907 244.837 484.217 245.142 484.267H245.145C245.638 484.351 250.677 485.085 254.282 481.296H254.283C257.206 478.227 257.084 474.393 257.051 473.697C257.034 473.322 257.324 473.004 257.699 472.987C258.074 472.97 258.391 473.259 258.409 473.634C258.445 474.406 258.594 478.739 255.267 482.233C251.157 486.552 245.482 485.702 244.92 485.608C244.564 485.549 242.687 485.213 240.796 484.283C238.922 483.362 236.863 481.769 236.478 479.124C236.184 477.117 236.969 475.253 238.182 473.785C239.394 472.318 241.079 471.185 242.729 470.612L248.192 470.233ZM248.192 470.233C246.342 469.868 244.323 470.058 242.73 470.612L248.192 470.233Z" fill="#78C0E0"/>
<path fill-rule="evenodd" clip-rule="evenodd" d="M607.334 472.681C605.102 473.122 603.198 474.209 602.228 476.089C600.958 478.562 601.27 482.341 603.703 484.367C605.047 485.487 606.89 485.963 608.616 485.842C610.355 485.719 611.836 485.004 612.561 483.916C612.984 483.276 613.23 482.391 613.224 481.557C613.218 480.706 612.956 480.065 612.556 479.75V479.749C612.134 479.416 611.33 479.268 610.257 479.589C609.208 479.904 608.003 480.646 606.922 481.902C606.677 482.186 606.248 482.218 605.964 481.973C605.68 481.729 605.647 481.3 605.892 481.015C607.121 479.587 608.539 478.685 609.867 478.288C611.17 477.897 612.495 477.97 613.398 478.683C614.255 479.359 614.575 480.491 614.582 481.548C614.59 482.621 614.282 483.778 613.693 484.667L613.692 484.668C612.657 486.223 610.71 487.056 608.711 487.197C606.699 487.339 604.492 486.793 602.833 485.412C599.817 482.899 599.518 478.39 601.02 475.468V475.467C602.244 473.094 604.591 471.838 607.07 471.348C609.55 470.858 612.259 471.11 614.389 471.848C616.597 472.615 618.856 474.133 620.48 476.099C622.105 478.066 623.139 480.541 622.754 483.193V483.194C622.243 486.681 619.525 488.802 616.993 490.046C614.444 491.299 611.909 491.752 611.438 491.831H611.435C610.697 491.951 603.057 493.099 597.544 487.301C593.083 482.611 593.272 476.793 593.329 475.742C593.349 475.367 593.67 475.08 594.044 475.1C594.419 475.12 594.706 475.44 594.686 475.815C594.634 476.775 594.47 482.099 598.529 486.364V486.365C603.53 491.624 610.518 490.603 611.216 490.49C611.646 490.419 614.024 489.991 616.394 488.827C618.785 487.652 620.996 485.816 621.409 482.998C621.724 480.834 620.893 478.732 619.432 476.964C617.97 475.195 615.921 473.819 613.944 473.132C612.031 472.47 609.566 472.24 607.334 472.681Z" fill="#78C0E0"/>
<path fill-rule="evenodd" clip-rule="evenodd" d="M550.998 468.93C548.766 469.371 546.863 470.458 545.892 472.339C544.622 474.812 544.934 478.591 547.367 480.617C548.711 481.736 550.554 482.213 552.28 482.091C554.019 481.969 555.5 481.254 556.225 480.166C556.648 479.526 556.894 478.641 556.888 477.807C556.882 476.956 556.62 476.315 556.22 475.999C555.798 475.666 554.994 475.518 553.921 475.839C552.872 476.153 551.667 476.895 550.586 478.151C550.341 478.436 549.912 478.468 549.628 478.223C549.344 477.978 549.311 477.549 549.556 477.265C550.785 475.837 552.204 474.935 553.531 474.537C554.834 474.147 556.159 474.219 557.062 474.932C557.919 475.609 558.239 476.741 558.246 477.797C558.254 478.871 557.946 480.027 557.357 480.916L557.356 480.918C556.321 482.472 554.374 483.306 552.376 483.447C550.363 483.588 548.156 483.042 546.498 481.661H546.497C543.481 479.149 543.182 474.639 544.684 471.717V471.716C545.908 469.344 548.255 468.087 550.734 467.597C553.214 467.107 555.923 467.36 558.053 468.097V468.098C560.261 468.865 562.52 470.383 564.144 472.348C565.769 474.315 566.803 476.79 566.418 479.443V479.444C565.907 482.93 563.189 485.052 560.657 486.296C558.108 487.549 555.573 488.002 555.102 488.08L555.099 488.081C554.361 488.2 546.721 489.348 541.208 483.55C536.747 478.861 536.936 473.042 536.993 471.991C537.013 471.616 537.334 471.329 537.708 471.349C538.083 471.37 538.37 471.69 538.35 472.065C538.298 473.025 538.135 478.348 542.193 482.614C547.194 487.873 554.182 486.853 554.88 486.74C555.31 486.668 557.688 486.241 560.058 485.076C562.449 483.902 564.66 482.066 565.073 479.247C565.388 477.083 564.557 474.982 563.096 473.214C561.634 471.444 559.585 470.069 557.608 469.381C555.695 468.719 553.23 468.489 550.998 468.93Z" fill="#78C0E0"/>
<path fill-rule="evenodd" clip-rule="evenodd" d="M178.995 475.425C177.393 475.741 176.059 476.515 175.384 477.828L175.383 477.829C174.48 479.581 174.711 482.253 176.417 483.675H176.418C177.357 484.461 178.66 484.801 179.887 484.715C181.129 484.628 182.151 484.12 182.638 483.386L182.639 483.385C182.929 482.95 183.102 482.337 183.097 481.757C183.093 481.161 182.909 480.756 182.676 480.573C182.431 480.381 181.909 480.263 181.152 480.49C180.419 480.709 179.565 481.231 178.793 482.126C178.548 482.41 178.119 482.442 177.835 482.197C177.551 481.952 177.519 481.523 177.764 481.239C178.684 480.171 179.752 479.49 180.762 479.188C181.748 478.893 182.788 478.935 183.515 479.504H183.516C184.207 480.048 184.45 480.944 184.456 481.747C184.462 482.567 184.227 483.453 183.77 484.139C182.972 485.34 181.481 485.966 179.982 486.071C178.468 486.177 176.801 485.767 175.546 484.718C173.258 482.81 173.04 479.409 174.175 477.207C175.104 475.401 176.882 474.457 178.732 474.092C180.582 473.727 182.602 473.917 184.195 474.471L178.995 475.425ZM174.175 477.207V477.206L174.779 477.518L174.175 477.207ZM178.995 475.425C180.598 475.109 182.373 475.276 183.749 475.754L178.995 475.425ZM187.695 478.509C186.644 477.238 185.17 476.248 183.749 475.754L187.695 478.509ZM187.695 478.509C188.744 479.779 189.325 481.268 189.102 482.787L187.695 478.509ZM190.447 482.983C190.741 480.975 189.956 479.112 188.742 477.644C187.53 476.177 185.846 475.044 184.195 474.471L190.447 482.983ZM190.447 482.983C190.062 485.628 188.003 487.221 186.128 488.142C184.239 489.071 182.362 489.407 182.005 489.466C181.445 489.561 175.768 490.412 171.658 486.092C168.33 482.598 168.48 478.265 168.516 477.493C168.533 477.118 168.851 476.828 169.226 476.846C169.601 476.863 169.891 477.181 169.873 477.556C169.841 478.251 169.719 482.086 172.642 485.155C176.247 488.944 181.287 488.21 181.78 488.126H181.782C182.088 488.076 183.813 487.766 185.529 486.923C187.262 486.071 188.814 484.763 189.102 482.787" fill="#78C0E0"/>
<path d="M173.125 573.025C173.112 572.155 173.988 571.544 174.797 571.863C179.369 573.671 194.405 579.473 204.114 581.545C204.895 581.708 205.412 582.231 205.758 582.924C207.049 585.506 204.923 588.523 202.035 588.421L162.39 587.083C161.677 587.062 161.079 586.525 161.004 585.812C160.719 583.271 160.291 576.388 162.261 574.024C162.655 573.548 163.586 573.976 164.449 574.268C165.407 574.601 167.01 579.432 172.887 574.656C173.173 574.438 173.139 573.739 173.125 573.025Z" fill="#41347F"/>
<path d="M227.455 577.618H237.069L238.693 561.72H227.455V577.618Z" fill="#D1874B"/>
<path d="M237.066 572.992C237.053 572.163 237.875 571.585 238.649 571.891C243.12 573.644 258.305 579.467 268.082 581.525C268.864 581.689 269.387 582.212 269.733 582.898C271.031 585.48 268.918 588.496 266.03 588.408L226.379 587.185C225.665 587.172 225.067 586.635 224.986 585.921C224.694 583.38 224.245 576.498 226.209 574.133C226.603 573.658 227.534 574.079 228.403 574.371C229.361 574.697 230.985 579.528 236.842 574.731C237.127 574.487 237.08 573.739 237.066 572.992Z" fill="#78C0E0"/>
<path d="M575.466 571.626C575.486 570.641 574.501 569.948 573.583 570.308C568.257 572.401 550.15 579.338 538.491 581.79C537.56 581.987 536.935 582.606 536.527 583.428C534.978 586.506 537.499 590.1 540.944 589.998L588.212 588.537C589.068 588.517 589.774 587.878 589.869 587.029C590.216 583.999 590.753 575.798 588.415 572.971C587.947 572.401 586.832 572.903 585.8 573.257C584.658 573.644 582.722 579.406 575.737 573.685C575.398 573.406 575.452 572.516 575.466 571.626Z" fill="#78C0E0"/>
<path d="M625.217 538.238L639.682 576.946L651.239 575.709L639.451 536.594L625.217 538.238Z" fill="#FFBEA8"/>
<path d="M637.502 572.788C635.362 575.132 633.127 588.537 633.127 588.537C633.983 588.516 654.638 589.386 654.733 588.537C655.079 585.507 656.302 573.596 653.958 570.77C653.496 570.206 638.168 572.061 637.502 572.788Z" fill="#41347F"/>
<path d="M226.966 564.927H238.748L247.417 479.373L212.984 394.437L173.162 402.685L225.947 479.373L226.966 564.927Z" fill="#41347F"/>
<path d="M162.952 568.677H175.889L184.361 483.843L190.986 397.263L155.35 394.437L162.878 483.286L162.952 568.677Z" fill="#41347F"/>
<path d="M204.205 361.607C196.745 356.497 164.519 359.949 164.519 359.949C164.519 359.949 158.16 368.727 156.121 377.995C151.963 396.924 161.72 423.469 161.72 423.469C161.72 423.469 219.084 413.366 217.956 406.714C212.134 372.274 205.679 365.996 204.891 363.808C204.442 362.381 204.205 361.607 204.205 361.607Z" fill="#41347F"/>
<path d="M159.065 287.386C153.024 295.261 149.478 281.665 147.969 293.657C146.447 305.738 159.873 336.196 163.012 365.494C175.242 370.929 191.426 374.652 202.698 367.151C203.499 365.894 214.513 317.193 214.601 316.038C214.771 313.721 214.873 312.362 214.873 312.362C214.873 312.362 222.897 299.48 220.906 297.285C215.389 291.205 210.688 292.319 205.871 287.474C201.746 283.33 190.556 277.928 184.713 277.745C177.246 277.514 163.603 281.461 159.065 287.386Z" fill="#78C0E0"/>
<path d="M203.387 57.7783H183.357V77.808H203.387V57.7783Z" fill="#41347F"/>
<path d="M240.35 57.7783H220.32V77.808H240.35V57.7783Z" fill="#41347F"/>
<path d="M629.87 57.7783H609.84V77.808H629.87V57.7783Z" fill="#41347F"/>
<path d="M583.254 154.971H219.229V167.982H583.254V154.971Z" fill="#41347F"/>
<path d="M583.254 190.967H219.229V203.978H583.254V190.967Z" fill="#41347F"/>
<path fill-rule="evenodd" clip-rule="evenodd" d="M246.809 279.169C250.743 276.285 256.269 277.135 259.154 281.068C262.039 285.002 261.189 290.53 257.255 293.415L252.331 286.7C257.255 293.415 257.254 293.415 257.253 293.416L257.216 293.443L257.129 293.507C257.056 293.56 256.951 293.636 256.818 293.732C256.551 293.924 256.166 294.199 255.676 294.544C254.696 295.234 253.292 296.206 251.561 297.362C248.11 299.666 243.311 302.733 237.956 305.744C232.636 308.735 226.571 311.784 220.619 313.955C214.922 316.033 208.193 317.742 201.992 316.885C197.16 316.218 193.784 311.759 194.451 306.927C195.119 302.095 199.578 298.719 204.41 299.386C206.223 299.637 209.605 299.169 214.565 297.36C219.272 295.643 224.413 293.092 229.298 290.346C234.147 287.619 238.55 284.809 241.751 282.671C243.346 281.606 244.629 280.717 245.506 280.099C245.944 279.791 246.28 279.551 246.501 279.392C246.611 279.313 246.693 279.253 246.745 279.216L246.8 279.176L246.808 279.17L246.809 279.169Z" fill="#78C0E0"/>
<path fill-rule="evenodd" clip-rule="evenodd" d="M138.39 236.431C143.202 235.636 147.749 238.893 148.544 243.705C148.9 245.856 148.528 248.061 148.358 249.049C148.12 250.433 147.766 251.997 147.388 253.549C147.057 254.907 146.555 256.85 146.045 258.824C145.575 260.642 145.099 262.486 144.744 263.923C143.844 267.561 143.131 270.828 142.82 273.333C142.744 273.942 142.702 274.432 142.682 274.813C146.654 279.496 151.78 282.946 156.311 285.312C158.739 286.579 160.881 287.476 162.389 288.047C163.14 288.331 163.725 288.532 164.099 288.654C164.286 288.715 164.419 288.757 164.493 288.779C164.528 288.79 164.55 288.797 164.558 288.799C169.233 290.148 171.938 295.027 170.602 299.709C169.263 304.4 164.375 307.117 159.684 305.779L162.047 297.498C159.684 305.779 159.682 305.778 159.679 305.777L159.674 305.776L159.662 305.772L159.634 305.764L159.558 305.742C159.499 305.724 159.423 305.702 159.332 305.674C159.15 305.618 158.904 305.541 158.6 305.442C157.994 305.243 157.155 304.954 156.133 304.568C154.096 303.796 151.295 302.621 148.135 300.971C141.907 297.719 133.808 292.377 127.578 284.212C127.577 284.211 127.576 284.211 127.576 284.21C125.538 281.539 125.158 278.498 125.048 276.863C124.919 274.942 125.066 272.949 125.29 271.153C125.739 267.538 126.674 263.408 127.595 259.682C128.135 257.498 128.587 255.765 129.006 254.155C129.426 252.546 129.813 251.061 130.224 249.372C130.575 247.929 130.814 246.834 130.948 246.059C130.977 245.889 130.997 245.755 131.011 245.654C130.749 241.199 133.889 237.175 138.39 236.431ZM131.039 245.405C131.039 245.405 131.038 245.42 131.035 245.45C131.037 245.421 131.038 245.406 131.039 245.405ZM142.693 275.843C142.69 275.845 142.682 275.801 142.675 275.702C142.691 275.79 142.695 275.84 142.693 275.843Z" fill="#78C0E0"/>
<path d="M290.574 247.123C290.574 247.123 297.491 236.408 300.209 238.637C302.926 240.858 300.209 245.981 300.209 245.981C300.209 245.981 324.913 242.02 324.913 245.146C324.913 248.271 314.538 257.029 312.805 256.784C311.073 256.54 301.309 257.708 296.003 256.567C290.703 255.425 290.574 247.123 290.574 247.123Z" fill="#D1874B"/>
<path d="M149.786 213.817C149.786 213.817 160.5 206.9 158.272 204.183C156.05 201.465 150.927 204.183 150.927 204.183C150.927 204.183 154.888 179.479 151.763 179.479C148.637 179.479 139.88 189.853 140.124 191.586C140.369 193.319 139.2 203.082 140.342 208.388C141.483 213.695 149.786 213.817 149.786 213.817Z" fill="#D1874B"/>
<path fill-rule="evenodd" clip-rule="evenodd" d="M204.731 260.664L204.732 260.665L204.737 260.671C204.742 260.677 204.749 260.686 204.76 260.699C204.781 260.724 204.813 260.76 204.856 260.805C204.941 260.896 205.066 261.018 205.221 261.143C205.538 261.397 205.954 261.64 206.407 261.685C206.594 261.703 206.73 261.87 206.712 262.056C206.693 262.243 206.527 262.379 206.34 262.361C205.699 262.297 205.16 261.965 204.796 261.673C204.611 261.524 204.463 261.379 204.362 261.272C204.311 261.218 204.271 261.172 204.243 261.14C204.229 261.123 204.218 261.11 204.211 261.101L204.201 261.09L204.199 261.086L204.198 261.085C204.198 261.085 204.197 261.084 204.464 260.874L204.198 261.085C204.082 260.937 204.107 260.723 204.255 260.607C204.402 260.491 204.615 260.517 204.731 260.664Z" fill="#1F1C2E"/>
<path d="M203.197 269.021C201.288 269.177 197.245 269.884 195.567 269.884L192.197 264.496C192.197 264.496 195.683 266.337 199.026 267.444C199.888 267.73 203.197 269.021 203.197 269.021Z" fill="#1F1C2E"/>
<path fill-rule="evenodd" clip-rule="evenodd" d="M414.041 226.603H462.541V275.102H414.041V226.603ZM416.149 228.711V272.994H460.433V228.711H416.149Z" fill="#41347F"/>
<path d="M618.482 277.901C617.538 282.466 592.8 277.357 593.744 272.791L593.404 258.51C593.527 257.905 596.781 260.439 597.359 260.562L599.281 254.243C601.931 254.793 604.465 252.646 606.986 252.137L615.431 251.403L618.482 277.901Z" fill="#FFBEA8"/>
<path d="M587.071 256.995C587.071 256.995 584.591 254.324 584.197 249.596L582.933 228.18C582.233 219.796 591.195 217.37 599.579 216.664L615.464 228.214C626.077 229.783 603.343 263.51 603.343 263.51L587.071 256.995Z" fill="#FFBEA8"/>
<path d="M584.397 232.052C583.921 237.474 579.328 242.067 580.008 242.726C581.183 243.861 585.953 245.824 586.218 245.702" fill="#FFBEA8"/>
<path d="M625.914 235.878C630.792 231.788 632.396 216.922 629.318 214.36C626.858 212.315 615.913 205.969 612.074 204.597C610.029 203.87 605.741 203.306 603.846 206.173C602.358 208.422 596.868 200.989 590.332 200.513C586.181 200.214 579.658 201.784 578.537 206.132C577.531 210.025 577.069 212.206 575.337 213.959C573.591 215.726 574.929 220.978 577.824 224.076C578.884 225.211 580.011 225.904 581.18 226.495C588.504 230.171 596.535 229.301 597.996 229.124C605.388 228.234 606.618 225.849 611.401 226.672C615.281 227.337 623.271 237.067 625.914 235.878Z" fill="#1F1C2E"/>
<path d="M571.06 401.727C571.06 401.727 622.2 438.063 629.545 434.306C636.896 430.549 630.503 379.978 630.503 379.978C618.151 367.789 571.053 378.959 571.053 378.959V401.727H571.06Z" fill="#41347F"/>
<path d="M582.974 553.879L568.285 482.505L611.089 407.897L571.057 401.728L545.619 478.734L564.596 551.794C564.725 553.343 582.995 554.498 582.974 553.879Z" fill="#41347F"/>
<path d="M599.518 406.11L632.178 396.672L633.544 412.836C633.836 416.274 633.747 419.725 633.279 423.143L625.445 480.535L644.802 553.872H629.086L600.448 482.573L599.518 406.11Z" fill="#41347F"/>
<path d="M567.783 284.172C574.999 281.59 582.812 278.41 594.641 272.404L615.955 274.144C615.955 274.144 633.015 276.793 641.25 279.593C649.335 282.344 654.336 284.865 652.895 297.285C650.538 317.641 637.112 360.343 635.332 374.36C635.101 376.194 630.59 378.708 630.501 379.985C630.365 381.888 635.4 395.68 632.173 396.679C617.592 401.197 569.087 394.614 569.087 394.614C569.087 394.614 566.146 373.178 566.207 370.997C566.716 353.012 564.209 285.456 567.783 284.172Z" fill="#78C0E0"/>
<path d="M503.753 259.95C503.556 259.76 475.394 253.163 475.713 249.011C475.924 248.508 471.29 240.566 472.295 240.403C478.077 239.492 508.394 246.035 508.394 246.035C508.394 246.035 521.378 242.04 521.663 245.471C521.948 248.862 518.34 252.497 518.85 254.549C519.407 256.791 520.555 258.809 519.951 259.59C518.272 261.771 518.164 265.481 513.951 264.869C511.526 264.516 503.753 259.95 503.753 259.95Z" fill="#FFBEA8"/>
<path d="M517.244 251.811C517.244 251.811 519.887 251.716 522.938 248.155C525.873 244.731 527.993 240.498 527.993 240.498C527.993 240.498 526.049 237.577 522.625 240.498C519.201 243.42 516.965 245.506 515.213 245.112C513.453 244.717 513.609 248.495 513.609 248.495L517.244 251.811Z" fill="#FFBEA8"/>
<path d="M664.298 189.12C664.183 188.869 660.425 176.686 660.425 176.686L650.988 162.724L648.277 188.284C648.277 188.284 643.535 193.686 646.905 195.215C650.241 196.73 650.825 199.909 652.707 201.139C654.759 202.484 656.349 204.299 657.388 204.027C660.283 203.279 661.506 204.665 662.586 200.521C663.197 198.15 664.298 189.12 664.298 189.12Z" fill="#FFBEA8"/>
<path d="M652.897 194.915C652.897 194.915 651.09 196.981 645.967 197.307C641.048 197.62 635.945 196.798 635.945 196.798C635.945 196.798 634.647 193.495 639.444 192.49C644.248 191.484 647.529 190.934 648.331 189.29C649.133 187.646 652.347 190.024 652.347 190.024L652.897 194.915Z" fill="#FFBEA8"/>
<path d="M585.083 231.672L586.184 240.015C586.184 240.015 596.376 239.268 595.282 244.194C594.949 245.696 594.759 247.693 594.657 249.745C594.385 255.289 598.645 260.032 604.189 260.392C609.346 260.731 614.917 260.629 616.215 258.802C623.736 248.196 629.342 234.505 629.742 228.717C630.429 218.831 606.431 224.239 606.431 224.239L584.193 223.784L585.083 231.672Z" fill="#1F1C2E"/>
<path d="M595.984 243.969C596.256 247.183 593.994 249.33 591.154 249.568C588.314 249.806 588.266 248.121 588.001 244.907C587.729 241.693 587.512 238.819 590.352 238.582C593.192 238.344 595.72 240.763 595.984 243.969Z" fill="#FFBEA8"/>
<path d="M618.791 267.968C618.791 267.968 594.977 265.671 591.797 269.66L590.336 272.167C589.371 273.825 590.438 275.917 592.341 276.121L615.89 278.608C619.443 278.764 621.923 275.143 620.496 271.888L618.791 267.968Z" fill="#78C0E0"/>
<path d="M201.136 243.494C205.362 241.504 205.016 237.257 205.016 237.257L206.748 242.074L209.575 243.059C209.575 243.059 211.219 231.468 207.346 227.127C201.129 220.142 174.441 214.612 170.263 226.142C170.263 226.142 162.687 227.378 161.206 234.05C159.725 240.722 153.705 291.014 153.705 291.014C153.787 304.446 190.972 301.484 190.89 288.051C190.884 288.045 196.91 245.485 201.136 243.494Z" fill="#1F1C2E"/>
<path d="M653.301 571.551C653.301 571.551 654.401 567.427 651.324 567.373C648.246 567.318 644.529 566.856 643.544 567.971C642.559 569.085 640.697 574.024 640.697 574.024L653.301 571.551Z" fill="#41347F"/>
<path d="M584.335 311.274C584.885 311.281 584.729 311.301 584.416 311.444L582.983 312.042C581.807 312.558 580.387 313.251 578.92 313.992C575.978 315.527 572.805 317.287 569.645 319.169C566.466 321.038 563.245 322.994 560.052 325.026C558.442 326.025 556.831 327.037 555.235 328.056L552.85 329.598L550.567 331.107L549.045 332.112L547.897 332.622C544.486 334.137 540.6 334.918 536.781 334.789C532.956 334.674 529.219 333.675 525.897 331.936C522.574 330.203 519.632 327.73 517.356 324.7C515.08 321.676 513.531 318.096 512.838 314.515L513.409 316.526C512.057 312.015 510.637 307.524 509.353 302.985L507.382 296.198L505.487 289.383C504.209 284.844 503.027 280.272 501.838 275.699C500.683 271.12 499.535 266.534 498.529 261.893L521.032 253.93C523.165 258.17 525.156 262.457 527.14 266.744C529.097 271.045 531.047 275.346 532.909 279.674L535.721 286.169L538.459 292.685C540.314 297.02 542.04 301.402 543.82 305.764L544.391 307.775C544.248 306.79 543.834 305.682 543.182 304.765C542.529 303.841 541.687 303.094 540.736 302.564C539.784 302.027 538.684 301.694 537.515 301.633C536.353 301.565 535.123 301.783 534.138 302.211L531.475 303.726L534.125 301.864L536.7 300.091C538.419 298.915 540.144 297.76 541.891 296.619C545.403 294.37 548.957 292.148 552.653 290.015C556.376 287.902 560.167 285.816 564.393 283.886C566.513 282.908 568.728 281.964 571.269 281.073C572.553 280.625 573.912 280.183 575.495 279.783C577.099 279.388 578.892 278.981 581.427 278.791L584.335 311.274Z" fill="#78C0E0"/>
<path d="M637.417 574.765C637.417 574.765 626.547 576.606 623.584 579.575C620.622 582.537 622.803 588.924 622.803 588.924L652.99 588.856L647.099 581.838L637.417 574.765Z" fill="#41347F"/>
<path d="M560.328 549.075L586.269 547.893L588.864 562.718C588.864 562.718 564.242 564.899 563.746 562.922C563.25 560.938 560.328 549.075 560.328 549.075Z" fill="#78C0E0"/>
<path d="M625.312 551.467L646.905 550.02L649.704 562.406C649.67 562.929 649.106 563.35 648.4 563.364C644.214 563.466 629.457 563.914 629.036 562.678C628.547 561.197 625.312 551.467 625.312 551.467Z" fill="#78C0E0"/>
<path fill-rule="evenodd" clip-rule="evenodd" d="M278.252 12.1081C274.662 12.1081 271.751 15.0197 271.751 18.6093V138.155C271.751 141.745 274.662 144.657 278.252 144.657H337.247C340.829 144.657 343.742 141.745 343.748 138.16V18.6093C343.748 15.0197 340.837 12.1081 337.247 12.1081H278.252ZM269.643 18.6093C269.643 13.8555 273.498 10 278.252 10H337.247C342.001 10 345.856 13.8555 345.856 18.6093V138.164C345.849 142.909 341.994 146.765 337.247 146.765H278.252C273.498 146.765 269.643 142.909 269.643 138.155V18.6093Z" fill="#41347F"/>
<path fill-rule="evenodd" clip-rule="evenodd" d="M634.203 44.9272H167.223C159.491 44.9272 153.223 51.1952 153.223 58.9272V76.6666C153.223 84.3986 159.491 90.6666 167.223 90.6666H634.203C641.935 90.6666 648.203 84.3986 648.203 76.6666V58.9272C648.203 51.1953 641.935 44.9272 634.203 44.9272ZM167.223 42.9272C158.386 42.9272 151.223 50.0907 151.223 58.9272V76.6666C151.223 85.5032 158.386 92.6666 167.223 92.6666H634.203C643.039 92.6666 650.203 85.5033 650.203 76.6666V58.9272C650.203 50.0907 643.039 42.9272 634.203 42.9272H167.223Z" fill="#41347F"/>
</g>
<defs>
<clipPath id="clip0">
<rect width="800" height="600" fill="white"/>
</clipPath>
</defs>
</svg>
