<svg width="24" height="24" viewBox="0 0 24 24" fill="none" xmlns="http://www.w3.org/2000/svg">
<path d="M14.5101 17.3601C8.96006 19.3901 8.96005 19.3901 6.78005 17.2101C4.61005 15.0401 4.61005 15.0401 6.63005 9.48012C8.82005 7.29012 12.4501 4.73012 15.6301 3.25012C18.2101 2.04012 20.5001 1.54012 21.4801 2.51012C23.6601 4.69012 18.4901 13.3801 14.5101 17.3601Z" fill="#0E0E52"/>
<path fill-rule="evenodd" clip-rule="evenodd" d="M6.08289 17.9171C5.09818 16.9324 3.59181 16.9424 2.70711 17.8271C2.31658 18.2176 1.68342 18.2176 1.29289 17.8271C0.90237 17.4366 0.90237 16.8034 1.29289 16.4129C3.00819 14.6976 5.78182 14.7876 7.49711 16.5029C9.21239 18.2182 9.3024 20.9918 7.58711 22.7071C7.19658 23.0976 6.56342 23.0976 6.17289 22.7071C5.78237 22.3166 5.78237 21.6834 6.17289 21.2929C7.0576 20.4082 7.06761 18.9018 6.08289 17.9171Z" fill="#0E0E52"/>
<path fill-rule="evenodd" clip-rule="evenodd" d="M5.07711 18.9229C5.46763 19.3134 5.46763 19.9466 5.07711 20.3371L3.20711 22.2071C2.81658 22.5976 2.18342 22.5976 1.79289 22.2071C1.40237 21.8166 1.40237 21.1834 1.79289 20.7929L3.66289 18.9229C4.05342 18.5324 4.68658 18.5324 5.07711 18.9229Z" fill="#0E0E52"/>
<path d="M14.1402 12.4701C13.4202 13.1901 12.2502 13.1901 11.5302 12.4701C10.8102 11.7501 10.8102 10.5801 11.5302 9.86007C12.2502 9.14007 13.4202 9.14007 14.1402 9.86007C14.8602 10.5801 14.8602 11.7501 14.1402 12.4701Z" stroke="#F0F3FF" stroke-miterlimit="10" stroke-linecap="round" stroke-linejoin="round"/>
<path d="M14.1402 12.4701C13.4202 13.1901 12.2502 13.1901 11.5302 12.4701C10.8102 11.7501 10.8102 10.5801 11.5302 9.86007C12.2502 9.14007 13.4202 9.14007 14.1402 9.86007C14.8602 10.5801 14.8602 11.7501 14.1402 12.4701Z" fill="#0E0E52"/>
</svg>
