<svg width="144" height="144" viewBox="0 0 144 144" fill="none" xmlns="http://www.w3.org/2000/svg">
<path d="M119.94 120C127.5 109.98 132 97.5 132 84C132 50.88 105.12 24 72 24C38.88 24 12 50.88 12 84C12 97.5 16.5 109.98 24.06 120" stroke="#0E0E52" stroke-width="6" stroke-linecap="round" stroke-linejoin="round"/>
<path d="M72 90C75.3138 90 78 87.3138 78 84C78 80.6862 75.3138 78 72 78C68.6862 78 66 80.6862 66 84C66 87.3138 68.6862 90 72 90Z" stroke="#0E0E52" stroke-width="6" stroke-linecap="round" stroke-linejoin="round"/>
<path d="M102 54L76.26 79.74" stroke="#0E0E52" stroke-width="6" stroke-linecap="round" stroke-linejoin="round"/>
<path d="M99 114H45" stroke="#0E0E52" stroke-width="6" stroke-linecap="round" stroke-linejoin="round"/>
<path d="M101.7 79.74C101.88 81.12 102 82.56 102 84C102 88.26 101.1 92.34 99.4805 96" stroke="#0E0E52" stroke-width="6" stroke-linecap="round" stroke-linejoin="round"/>
<path d="M44.52 96C42.9 92.34 42 88.26 42 84C42 67.44 55.44 54 72 54C73.44 54 74.88 54.12 76.26 54.3" stroke="#0E0E52" stroke-width="6" stroke-linecap="round" stroke-linejoin="round"/>
</svg>
