<svg width="48" height="48" viewBox="0 0 48 48" fill="none" xmlns="http://www.w3.org/2000/svg">
<path d="M44 11.78C42.52 12.42 40.92 12.84 39.28 13.06C40.98 12.06 42.28 10.48 42.88 8.6C41.3 9.54 39.54 10.18 37.68 10.56C36.18 8.98 34.04 8 31.7 8C27.16 8 23.5 11.62 23.5 16.08C23.5 16.72 23.56 17.34 23.68 17.92C16.88 17.58 10.84 14.38 6.77998 9.48C6.07998 10.68 5.65998 12.06 5.65998 13.56C5.65998 16.36 7.11998 18.84 9.29998 20.26C7.97998 20.24 6.67998 19.86 5.59998 19.26V19.34C5.59998 23.26 8.43998 26.52 12.16 27.28C11.5 27.46 10.76 27.54 9.99998 27.54C9.47998 27.54 8.93998 27.52 8.43998 27.4C9.49998 30.6 12.52 32.96 16.1 33.02C13.32 35.18 9.75998 36.46 5.93998 36.46C5.25998 36.46 4.61998 36.42 3.97998 36.34C7.63998 38.68 11.94 40 16.58 40C31.68 40 39.92 27.7 39.92 17.02C39.92 16.66 39.9 16.32 39.88 15.98C41.52 14.84 42.88 13.42 44 11.78Z" fill="#41347F" stroke="#F0F3FF" stroke-width="2" stroke-miterlimit="10" stroke-linecap="round" stroke-linejoin="round"/>
</svg>
